<svg xmlns="http://www.w3.org/2000/svg" xmlns:xlink="http://www.w3.org/1999/xlink" contentStyleType="text/css" data-diagram-type="ACTIVITY" height="749px" preserveAspectRatio="none" style="width:986px;height:749px;background:#FFFFFF;" version="1.1" viewBox="0 0 986 749" width="986px" zoomAndPan="magnify"><title>D&#252;nya Ka&#351;ifi - Aktivite Diyagram&#305;: G&#246;rev Tamamlama</title><defs/><g><g class="title" data-source-line="1"><text fill="#000000" font-family="sans-serif" font-size="14" font-weight="bold" lengthAdjust="spacing" textLength="420.1367" x="281.6638" y="32.9951">D&#252;nya Ka&#351;ifi - Aktivite Diyagram&#305;: G&#246;rev Tamamlama</text></g><ellipse cx="492.582" cy="57.2969" fill="#222222" rx="10" ry="10" style="stroke:#222222;stroke-width:1;"/><rect fill="#F1F1F1" height="33.9688" rx="12.5" ry="12.5" style="stroke:#181818;stroke-width:0.5;" width="134.4746" x="425.3447" y="87.2969"/><text fill="#000000" font-family="sans-serif" font-size="12" lengthAdjust="spacing" textLength="114.4746" x="435.3447" y="108.4355">&#199;ocuk G&#246;rev Se&#231;er</text><rect fill="none" height="231.0391" style="stroke:#000000;stroke-width:1.5;" width="964.4644" x="11" y="131.2656"/><path d="M127.3125,131.2656 L127.3125,140.5625 L117.3125,150.5625 L11,150.5625" fill="none" style="stroke:#000000;stroke-width:1.5;"/><text fill="#000000" font-family="sans-serif" font-size="14" lengthAdjust="spacing" textLength="106.3125" x="14" y="145.2607">G&#246;rev Y&#252;r&#252;tme</text><polygon fill="#F1F1F1" points="53.5823,170.5625,115.7849,170.5625,127.7849,182.5625,115.7849,194.5625,53.5823,194.5625,41.5823,182.5625,53.5823,170.5625" style="stroke:#181818;stroke-width:0.5;"/><text fill="#000000" font-family="sans-serif" font-size="11" lengthAdjust="spacing" textLength="39.585" x="88.6836" y="204.7729">Co&#287;rafi</text><text fill="#000000" font-family="sans-serif" font-size="11" lengthAdjust="spacing" textLength="62.2026" x="53.5823" y="186.3706">G&#246;rev Tipi?</text><rect fill="#F1F1F1" height="33.9688" rx="12.5" ry="12.5" style="stroke:#181818;stroke-width:0.5;" width="90.2598" x="39.5537" y="227.3672"/><text fill="#000000" font-family="sans-serif" font-size="12" lengthAdjust="spacing" textLength="70.2598" x="49.5537" y="248.5059">Harita A&#231;&#305;l&#305;r</text><rect fill="#F1F1F1" height="33.9688" rx="12.5" ry="12.5" style="stroke:#181818;stroke-width:0.5;" width="127.3672" x="21" y="296.3359"/><text fill="#000000" font-family="sans-serif" font-size="12" lengthAdjust="spacing" textLength="107.3672" x="31" y="317.4746">Lokasyon Bulunur</text><polygon fill="#F1F1F1" points="262.1792,170.5625,305.0513,170.5625,317.0513,182.5625,305.0513,194.5625,262.1792,194.5625,250.1792,182.5625,262.1792,170.5625" style="stroke:#181818;stroke-width:0.5;"/><text fill="#000000" font-family="sans-serif" font-size="11" lengthAdjust="spacing" textLength="42.8721" x="262.1792" y="186.3706">K&#252;lt&#252;rel</text><rect fill="#F1F1F1" height="33.9688" rx="12.5" ry="12.5" style="stroke:#181818;stroke-width:0.5;" width="250.4961" x="158.3672" y="214.5625"/><text fill="#000000" font-family="sans-serif" font-size="12" lengthAdjust="spacing" textLength="230.4961" x="168.3672" y="235.7012">E&#351;le&#351;tirme/Toplama Aray&#252;z&#252; G&#246;sterilir</text><rect fill="#F1F1F1" height="33.9688" rx="12.5" ry="12.5" style="stroke:#181818;stroke-width:0.5;" width="150.3535" x="208.4385" y="283.5313"/><text fill="#000000" font-family="sans-serif" font-size="12" lengthAdjust="spacing" textLength="130.3535" x="218.4385" y="304.6699">Etkile&#351;im Tamamlan&#305;r</text><polygon fill="#F1F1F1" points="508.792,170.5625,532.792,170.5625,544.792,182.5625,532.792,194.5625,508.792,194.5625,496.792,182.5625,508.792,170.5625" style="stroke:#181818;stroke-width:0.5;"/><text fill="#000000" font-family="sans-serif" font-size="11" lengthAdjust="spacing" textLength="14.5825" x="513.5007" y="186.3706">Dil</text><rect fill="#F1F1F1" height="33.9688" rx="12.5" ry="12.5" style="stroke:#181818;stroke-width:0.5;" width="153.5469" x="444.0186" y="214.5625"/><text fill="#000000" font-family="sans-serif" font-size="12" lengthAdjust="spacing" textLength="133.5469" x="454.0186" y="235.7012">Kelime/C&#252;mle Sunulur</text><rect fill="#F1F1F1" height="33.9688" rx="12.5" ry="12.5" style="stroke:#181818;stroke-width:0.5;" width="183.8574" x="428.8633" y="283.5313"/><text fill="#000000" font-family="sans-serif" font-size="12" lengthAdjust="spacing" textLength="163.8574" x="438.8633" y="304.6699">Telaffuz/Anlam Testi Yap&#305;l&#305;r</text><polygon fill="#F1F1F1" points="673.2192,170.5625,728.4019,170.5625,740.4019,182.5625,728.4019,194.5625,673.2192,194.5625,661.2192,182.5625,673.2192,170.5625" style="stroke:#181818;stroke-width:0.5;"/><text fill="#000000" font-family="sans-serif" font-size="11" lengthAdjust="spacing" textLength="55.1826" x="673.2192" y="186.3706">Mini Oyun</text><text fill="#000000" font-family="sans-serif" font-size="11" lengthAdjust="spacing" textLength="29.7988" x="740.4019" y="179.9683">Di&#287;er</text><rect fill="#F1F1F1" height="33.9688" rx="12.5" ry="12.5" style="stroke:#181818;stroke-width:0.5;" width="136.1797" x="632.7207" y="214.5625"/><text fill="#000000" font-family="sans-serif" font-size="12" lengthAdjust="spacing" textLength="116.1797" x="642.7207" y="235.7012">Mini Oyun Ba&#351;lat&#305;l&#305;r</text><rect fill="#F1F1F1" height="33.9688" rx="12.5" ry="12.5" style="stroke:#181818;stroke-width:0.5;" width="127.5488" x="637.0361" y="283.5313"/><text fill="#000000" font-family="sans-serif" font-size="12" lengthAdjust="spacing" textLength="107.5488" x="647.0361" y="304.6699">Oyun Tamamlan&#305;r</text><rect fill="#F1F1F1" height="33.9688" rx="12.5" ry="12.5" style="stroke:#181818;stroke-width:0.5;" width="185.2637" x="780.2007" y="258.4492"/><text fill="#000000" font-family="sans-serif" font-size="12" lengthAdjust="spacing" textLength="165.2637" x="790.2007" y="279.5879">&#304;lgili Aktivite Ger&#231;ekle&#351;tirilir</text><rect fill="#F1F1F1" height="33.9688" rx="12.5" ry="12.5" style="stroke:#181818;stroke-width:0.5;" width="146.2813" x="419.4414" y="382.3047"/><text fill="#000000" font-family="sans-serif" font-size="12" lengthAdjust="spacing" textLength="126.2813" x="429.4414" y="403.4434">Sonu&#231; De&#287;erlendirilir</text><polygon fill="#F1F1F1" points="442.5288,436.2734,542.6353,436.2734,554.6353,448.2734,542.6353,460.2734,442.5288,460.2734,430.5288,448.2734,442.5288,436.2734" style="stroke:#181818;stroke-width:0.5;"/><text fill="#000000" font-family="sans-serif" font-size="11" lengthAdjust="spacing" textLength="100.1064" x="442.5288" y="452.0815">G&#246;rev Ba&#351;ar&#305;l&#305; m&#305;?</text><text fill="#000000" font-family="sans-serif" font-size="11" lengthAdjust="spacing" textLength="24.5405" x="405.9883" y="445.6792">Evet</text><text fill="#000000" font-family="sans-serif" font-size="11" lengthAdjust="spacing" textLength="29.1006" x="554.6353" y="445.6792">Hay&#305;r</text><rect fill="#F1F1F1" height="33.9688" rx="12.5" ry="12.5" style="stroke:#181818;stroke-width:0.5;" width="121.1211" x="315.9629" y="470.2734"/><text fill="#000000" font-family="sans-serif" font-size="12" lengthAdjust="spacing" textLength="101.1211" x="325.9629" y="491.4121">&#214;d&#252;l/Puan Verilir</text><rect fill="#F1F1F1" height="33.9688" rx="12.5" ry="12.5" style="stroke:#181818;stroke-width:0.5;" width="145.0215" x="304.0127" y="524.2422"/><text fill="#000000" font-family="sans-serif" font-size="12" lengthAdjust="spacing" textLength="125.0215" x="314.0127" y="545.3809">Pasaport G&#252;ncellenir</text><rect fill="#F1F1F1" height="33.9688" rx="12.5" ry="12.5" style="stroke:#181818;stroke-width:0.5;" width="169.0801" x="291.9834" y="578.2109"/><text fill="#000000" font-family="sans-serif" font-size="12" lengthAdjust="spacing" textLength="149.0801" x="301.9834" y="599.3496">Ba&#351;ar&#305; Bildirimi G&#246;sterilir</text><rect fill="#F1F1F1" height="33.9688" rx="12.5" ry="12.5" style="stroke:#181818;stroke-width:0.5;" width="255.1543" x="481.0635" y="470.2734"/><text fill="#000000" font-family="sans-serif" font-size="12" lengthAdjust="spacing" textLength="235.1543" x="491.0635" y="491.4121">&#304;pucu/Tekrar Deneme &#214;nerisi G&#246;sterilir</text><polygon fill="#F1F1F1" points="492.582,618.1797,504.582,630.1797,492.582,642.1797,480.582,630.1797,492.582,618.1797" style="stroke:#181818;stroke-width:0.5;"/><rect fill="#F1F1F1" height="33.9688" rx="12.5" ry="12.5" style="stroke:#181818;stroke-width:0.5;" width="164.0703" x="410.5469" y="662.1797"/><text fill="#000000" font-family="sans-serif" font-size="12" lengthAdjust="spacing" textLength="144.0703" x="420.5469" y="683.3184">G&#246;rev Ekran&#305;na D&#246;n&#252;l&#252;r</text><ellipse cx="492.582" cy="727.1484" fill="none" rx="11" ry="11" style="stroke:#222222;stroke-width:1;"/><ellipse cx="492.582" cy="727.1484" fill="#222222" rx="6" ry="6" style="stroke:#222222;stroke-width:1;"/><line style="stroke:#181818;stroke-width:1;" x1="492.582" x2="492.582" y1="67.2969" y2="87.2969"/><polygon fill="#181818" points="488.582,77.2969,492.582,87.2969,496.582,77.2969,492.582,81.2969" style="stroke:#181818;stroke-width:1;"/><line style="stroke:#181818;stroke-width:1;" x1="84.6836" x2="84.6836" y1="261.3359" y2="296.3359"/><polygon fill="#181818" points="80.6836,286.3359,84.6836,296.3359,88.6836,286.3359,84.6836,290.3359" style="stroke:#181818;stroke-width:1;"/><line style="stroke:#181818;stroke-width:1;" x1="283.6152" x2="283.6152" y1="248.5313" y2="283.5313"/><polygon fill="#181818" points="279.6152,273.5313,283.6152,283.5313,287.6152,273.5313,283.6152,277.5313" style="stroke:#181818;stroke-width:1;"/><line style="stroke:#181818;stroke-width:1;" x1="520.792" x2="520.792" y1="248.5313" y2="283.5313"/><polygon fill="#181818" points="516.792,273.5313,520.792,283.5313,524.792,273.5313,520.792,277.5313" style="stroke:#181818;stroke-width:1;"/><line style="stroke:#181818;stroke-width:1;" x1="700.8105" x2="700.8105" y1="248.5313" y2="283.5313"/><polygon fill="#181818" points="696.8105,273.5313,700.8105,283.5313,704.8105,273.5313,700.8105,277.5313" style="stroke:#181818;stroke-width:1;"/><line style="stroke:#181818;stroke-width:1;" x1="84.6836" x2="84.6836" y1="194.5625" y2="227.3672"/><polygon fill="#181818" points="80.6836,217.3672,84.6836,227.3672,88.6836,217.3672,84.6836,221.3672" style="stroke:#181818;stroke-width:1;"/><line style="stroke:#181818;stroke-width:1;" x1="84.6836" x2="84.6836" y1="330.3047" y2="350.3047"/><polygon fill="#181818" points="80.6836,340.3047,84.6836,350.3047,88.6836,340.3047,84.6836,344.3047" style="stroke:#181818;stroke-width:1;"/><line style="stroke:#181818;stroke-width:1;" x1="283.6152" x2="283.6152" y1="194.5625" y2="214.5625"/><polygon fill="#181818" points="279.6152,204.5625,283.6152,214.5625,287.6152,204.5625,283.6152,208.5625" style="stroke:#181818;stroke-width:1;"/><line style="stroke:#181818;stroke-width:1;" x1="283.6152" x2="283.6152" y1="317.5" y2="350.3047"/><polygon fill="#181818" points="279.6152,340.3047,283.6152,350.3047,287.6152,340.3047,283.6152,344.3047" style="stroke:#181818;stroke-width:1;"/><line style="stroke:#181818;stroke-width:1;" x1="520.792" x2="520.792" y1="194.5625" y2="214.5625"/><polygon fill="#181818" points="516.792,204.5625,520.792,214.5625,524.792,204.5625,520.792,208.5625" style="stroke:#181818;stroke-width:1;"/><line style="stroke:#181818;stroke-width:1;" x1="520.792" x2="520.792" y1="317.5" y2="350.3047"/><polygon fill="#181818" points="516.792,340.3047,520.792,350.3047,524.792,340.3047,520.792,344.3047" style="stroke:#181818;stroke-width:1;"/><line style="stroke:#181818;stroke-width:1;" x1="700.8105" x2="700.8105" y1="194.5625" y2="214.5625"/><polygon fill="#181818" points="696.8105,204.5625,700.8105,214.5625,704.8105,204.5625,700.8105,208.5625" style="stroke:#181818;stroke-width:1;"/><line style="stroke:#181818;stroke-width:1;" x1="700.8105" x2="700.8105" y1="317.5" y2="350.3047"/><polygon fill="#181818" points="696.8105,340.3047,700.8105,350.3047,704.8105,340.3047,700.8105,344.3047" style="stroke:#181818;stroke-width:1;"/><line style="stroke:#181818;stroke-width:1;" x1="127.7849" x2="250.1792" y1="182.5625" y2="182.5625"/><polygon fill="#181818" points="240.1792,178.5625,250.1792,182.5625,240.1792,186.5625,244.1792,182.5625" style="stroke:#181818;stroke-width:1;"/><line style="stroke:#181818;stroke-width:1;" x1="317.0513" x2="496.792" y1="182.5625" y2="182.5625"/><polygon fill="#181818" points="486.792,178.5625,496.792,182.5625,486.792,186.5625,490.792,182.5625" style="stroke:#181818;stroke-width:1;"/><line style="stroke:#181818;stroke-width:1;" x1="544.792" x2="661.2192" y1="182.5625" y2="182.5625"/><polygon fill="#181818" points="651.2192,178.5625,661.2192,182.5625,651.2192,186.5625,655.2192,182.5625" style="stroke:#181818;stroke-width:1;"/><line style="stroke:#181818;stroke-width:1;" x1="492.582" x2="492.582" y1="121.2656" y2="155.5625"/><line style="stroke:#181818;stroke-width:1;" x1="492.582" x2="84.6836" y1="155.5625" y2="155.5625"/><line style="stroke:#181818;stroke-width:1;" x1="84.6836" x2="84.6836" y1="155.5625" y2="170.5625"/><polygon fill="#181818" points="80.6836,160.5625,84.6836,170.5625,88.6836,160.5625,84.6836,164.5625" style="stroke:#181818;stroke-width:1;"/><line style="stroke:#181818;stroke-width:1;" x1="740.4019" x2="872.8325" y1="182.5625" y2="182.5625"/><line style="stroke:#181818;stroke-width:1;" x1="872.8325" x2="872.8325" y1="182.5625" y2="258.4492"/><polygon fill="#181818" points="868.8325,248.4492,872.8325,258.4492,876.8325,248.4492,872.8325,252.4492" style="stroke:#181818;stroke-width:1;"/><line style="stroke:#181818;stroke-width:1;" x1="872.8325" x2="872.8325" y1="292.418" y2="350.3047"/><polygon fill="#181818" points="868.8325,340.3047,872.8325,350.3047,876.8325,340.3047,872.8325,344.3047" style="stroke:#181818;stroke-width:1;"/><line style="stroke:#181818;stroke-width:1;" x1="84.6836" x2="872.8325" y1="350.3047" y2="350.3047"/><line style="stroke:#181818;stroke-width:1;" x1="492.582" x2="492.582" y1="350.3047" y2="382.3047"/><polygon fill="#181818" points="488.582,372.3047,492.582,382.3047,496.582,372.3047,492.582,376.3047" style="stroke:#181818;stroke-width:1;"/><line style="stroke:#181818;stroke-width:1;" x1="376.5234" x2="376.5234" y1="504.2422" y2="524.2422"/><polygon fill="#181818" points="372.5234,514.2422,376.5234,524.2422,380.5234,514.2422,376.5234,518.2422" style="stroke:#181818;stroke-width:1;"/><line style="stroke:#181818;stroke-width:1;" x1="376.5234" x2="376.5234" y1="558.2109" y2="578.2109"/><polygon fill="#181818" points="372.5234,568.2109,376.5234,578.2109,380.5234,568.2109,376.5234,572.2109" style="stroke:#181818;stroke-width:1;"/><line style="stroke:#181818;stroke-width:1;" x1="430.5288" x2="376.5234" y1="448.2734" y2="448.2734"/><line style="stroke:#181818;stroke-width:1;" x1="376.5234" x2="376.5234" y1="448.2734" y2="470.2734"/><polygon fill="#181818" points="372.5234,460.2734,376.5234,470.2734,380.5234,460.2734,376.5234,464.2734" style="stroke:#181818;stroke-width:1;"/><line style="stroke:#181818;stroke-width:1;" x1="554.6353" x2="608.6406" y1="448.2734" y2="448.2734"/><line style="stroke:#181818;stroke-width:1;" x1="608.6406" x2="608.6406" y1="448.2734" y2="470.2734"/><polygon fill="#181818" points="604.6406,460.2734,608.6406,470.2734,612.6406,460.2734,608.6406,464.2734" style="stroke:#181818;stroke-width:1;"/><line style="stroke:#181818;stroke-width:1;" x1="376.5234" x2="376.5234" y1="612.1797" y2="630.1797"/><line style="stroke:#181818;stroke-width:1;" x1="376.5234" x2="480.582" y1="630.1797" y2="630.1797"/><polygon fill="#181818" points="470.582,626.1797,480.582,630.1797,470.582,634.1797,474.582,630.1797" style="stroke:#181818;stroke-width:1;"/><line style="stroke:#181818;stroke-width:1;" x1="608.6406" x2="608.6406" y1="504.2422" y2="630.1797"/><line style="stroke:#181818;stroke-width:1;" x1="608.6406" x2="504.582" y1="630.1797" y2="630.1797"/><polygon fill="#181818" points="514.582,626.1797,504.582,630.1797,514.582,634.1797,510.582,630.1797" style="stroke:#181818;stroke-width:1;"/><line style="stroke:#181818;stroke-width:1;" x1="492.582" x2="492.582" y1="416.2734" y2="436.2734"/><polygon fill="#181818" points="488.582,426.2734,492.582,436.2734,496.582,426.2734,492.582,430.2734" style="stroke:#181818;stroke-width:1;"/><line style="stroke:#181818;stroke-width:1;" x1="492.582" x2="492.582" y1="642.1797" y2="662.1797"/><polygon fill="#181818" points="488.582,652.1797,492.582,662.1797,496.582,652.1797,492.582,656.1797" style="stroke:#181818;stroke-width:1;"/><line style="stroke:#181818;stroke-width:1;" x1="492.582" x2="492.582" y1="696.1484" y2="716.1484"/><polygon fill="#181818" points="488.582,706.1484,492.582,716.1484,496.582,706.1484,492.582,710.1484" style="stroke:#181818;stroke-width:1;"/><!--SRC=[RLCzJ-D04EtzAwQ40gKtnIaX4KYvqo75Gg8SXJ6Cl5vRwzr8vaHz_u3MPLhIKBbRvtyn6spZ-zZ2nRwTzzxC6rksYc3fMrqZhF7OSCfm0VFCyewj85pZey6yEyHmxTyDxI3177CbdoYgB1eRnVvtiNNPW6_8xybSHgLWRBdG0t3lM-DRcnFyYa0Eft0sS7B9tyx1Ff66iwkYQmocV7vw5KvyWuOjmjplkuFg3i8-Gj-B3AjQL1PEEUrwY5H5WN_jMsL5bzI4RNLi51qRooQdMLAKeHcO6wnz- -pROBUoP5ZnL6TbCmvLd0yJqAEHGMt9KvarAHQ1Az_cCkEDc5DkofYGmZHrpxEv5WUGK6KPxh6SjZWm_s3DyBDsUi8_ti52WbDe_vdD2Vols-2rQyXCwBetzIWzVsL_JKQIpFfHVOs3z0EdqKiKRmhj_1wM59XKkEvVJP8Drj2Sd85iqHZoQaVsKppshm-IqkpMeOQxwTpZMwomB8oLI5gz9IKQ8pOGmu9L4Cxvp-0-kxp1MlhkXRgtqctTBA7Ce17RccGN_QkMakhlwbEFST_4IWfaVXhbJtdNObOswZAiVr5-0000]--></g></svg>