<svg xmlns="http://www.w3.org/2000/svg" xmlns:xlink="http://www.w3.org/1999/xlink" contentStyleType="text/css" data-diagram-type="DESCRIPTION" height="757px" preserveAspectRatio="none" style="width:3009px;height:757px;background:#FFFFFF;" version="1.1" viewBox="0 0 3009 757" width="3009px" zoomAndPan="magnify"><title>D&#252;nya Ka&#351;ifi - Bile&#351;en Diyagram&#305; (Revize)</title><defs/><g><g class="title" data-source-line="1"><text fill="#000000" font-family="sans-serif" font-size="14" font-weight="bold" lengthAdjust="spacing" textLength="327.5781" x="1333.7109" y="22.9951">D&#252;nya Ka&#351;ifi - Bile&#351;en Diyagram&#305; (Revize)</text></g><!--cluster UI Katman?--><g class="cluster" data-entity="UI Katman&#305;" data-source-line="4" data-uid="ent0002" id="cluster_UI Katman&#305;"><path d="M8.5,43.2969 L96.7402,43.2969 A3.75,3.75 0 0 1 99.2402,45.7969 L106.2402,65.5938 L1038.5,65.5938 A2.5,2.5 0 0 1 1041,68.0938 L1041,298.9869 A2.5,2.5 0 0 1 1038.5,301.4869 L8.5,301.4869 A2.5,2.5 0 0 1 6,298.9869 L6,45.7969 A2.5,2.5 0 0 1 8.5,43.2969" fill="none" style="stroke:#000000;stroke-width:1.5;"/><line style="stroke:#000000;stroke-width:1.5;" x1="6" x2="106.2402" y1="65.5938" y2="65.5938"/><text fill="#000000" font-family="sans-serif" font-size="14" font-weight="bold" lengthAdjust="spacing" textLength="87.2402" x="10" y="58.292">UI Katman&#305;</text></g><!--cluster Uygulama Mant???--><g class="cluster" data-entity="Uygulama Mant&#305;&#287;&#305;" data-source-line="15" data-uid="ent0011" id="cluster_Uygulama Mant&#305;&#287;&#305;"><path d="M1067.5,187.8869 L1211.7949,187.8869 A3.75,3.75 0 0 1 1214.2949,190.3869 L1221.2949,210.1838 L1798.5,210.1838 A2.5,2.5 0 0 1 1801,212.6838 L1801,585.1769 A2.5,2.5 0 0 1 1798.5,587.6769 L1067.5,587.6769 A2.5,2.5 0 0 1 1065,585.1769 L1065,190.3869 A2.5,2.5 0 0 1 1067.5,187.8869" fill="none" style="stroke:#000000;stroke-width:1.5;"/><line style="stroke:#000000;stroke-width:1.5;" x1="1065" x2="1221.2949" y1="210.1838" y2="210.1838"/><text fill="#000000" font-family="sans-serif" font-size="14" font-weight="bold" lengthAdjust="spacing" textLength="143.2949" x="1069" y="202.882">Uygulama Mant&#305;&#287;&#305;</text></g><!--cluster ?ekirdek Servisler--><g class="cluster" data-entity="&#199;ekirdek Servisler" data-source-line="24" data-uid="ent0018" id="cluster_&#199;ekirdek Servisler"><path d="M1827.5,474.0769 L1972.9229,474.0769 A3.75,3.75 0 0 1 1975.4229,476.5769 L1982.4229,496.3738 L2511.5,496.3738 A2.5,2.5 0 0 1 2514,498.8738 L2514,585.1769 A2.5,2.5 0 0 1 2511.5,587.6769 L1827.5,587.6769 A2.5,2.5 0 0 1 1825,585.1769 L1825,476.5769 A2.5,2.5 0 0 1 1827.5,474.0769" fill="none" style="stroke:#000000;stroke-width:1.5;"/><line style="stroke:#000000;stroke-width:1.5;" x1="1825" x2="1982.4229" y1="496.3738" y2="496.3738"/><text fill="#000000" font-family="sans-serif" font-size="14" font-weight="bold" lengthAdjust="spacing" textLength="144.4229" x="1829" y="489.072">&#199;ekirdek Servisler</text></g><!--cluster Backend Servisleri (Opsiyonel)--><g class="cluster" data-entity="Backend Servisleri (Opsiyonel)" data-source-line="31" data-uid="ent0023" id="cluster_Backend Servisleri (Opsiyonel)"><path d="M2494.5,636.6769 L2738.0527,636.6769 A3.75,3.75 0 0 1 2740.5527,639.1769 L2747.5527,658.9738 L2999.5,658.9738 A2.5,2.5 0 0 1 3002,661.4738 L3002,747.7669 A2.5,2.5 0 0 1 2999.5,750.2669 L2494.5,750.2669 A2.5,2.5 0 0 1 2492,747.7669 L2492,639.1769 A2.5,2.5 0 0 1 2494.5,636.6769" fill="none" style="stroke:#000000;stroke-width:1.5;"/><line style="stroke:#000000;stroke-width:1.5;" x1="2492" x2="2747.5527" y1="658.9738" y2="658.9738"/><text fill="#000000" font-family="sans-serif" font-size="14" font-weight="bold" lengthAdjust="spacing" textLength="242.5527" x="2496" y="651.672">Backend Servisleri (Opsiyonel)</text></g><!--entity UIManager--><g class="entity" data-entity="UIManager" data-source-line="5" data-uid="ent0003" id="entity_UIManager"><rect fill="#F1F1F1" height="62.5938" rx="2.5" ry="2.5" style="stroke:#181818;stroke-width:0.5;" width="138.332" x="713.83" y="78.2969"/><rect fill="#F1F1F1" height="10" style="stroke:#181818;stroke-width:0.5;" width="15" x="832.162" y="83.2969"/><rect fill="#F1F1F1" height="2" style="stroke:#181818;stroke-width:0.5;" width="4" x="830.162" y="85.2969"/><rect fill="#F1F1F1" height="2" style="stroke:#181818;stroke-width:0.5;" width="4" x="830.162" y="89.2969"/><text fill="#000000" font-family="sans-serif" font-size="14" font-style="italic" lengthAdjust="spacing" textLength="96.332" x="729.83" y="111.292">&#171;component&#187;</text><text fill="#000000" font-family="sans-serif" font-size="14" lengthAdjust="spacing" textLength="41.0977" x="757.4472" y="127.5889">UIMgr</text></g><!--entity MainUI--><g class="entity" data-entity="MainUI" data-source-line="6" data-uid="ent0004" id="entity_MainUI"><rect fill="#F1F1F1" height="62.5938" rx="2.5" ry="2.5" style="stroke:#181818;stroke-width:0.5;" width="138.332" x="21.83" y="78.2969"/><rect fill="#F1F1F1" height="10" style="stroke:#181818;stroke-width:0.5;" width="15" x="140.162" y="83.2969"/><rect fill="#F1F1F1" height="2" style="stroke:#181818;stroke-width:0.5;" width="4" x="138.162" y="85.2969"/><rect fill="#F1F1F1" height="2" style="stroke:#181818;stroke-width:0.5;" width="4" x="138.162" y="89.2969"/><text fill="#000000" font-family="sans-serif" font-size="14" font-style="italic" lengthAdjust="spacing" textLength="96.332" x="37.83" y="111.292">&#171;component&#187;</text><text fill="#000000" font-family="sans-serif" font-size="14" lengthAdjust="spacing" textLength="47.7969" x="62.0976" y="127.5889">MainUI</text></g><!--entity AvatarUI--><g class="entity" data-entity="AvatarUI" data-source-line="7" data-uid="ent0005" id="entity_AvatarUI"><rect fill="#F1F1F1" height="62.5938" rx="2.5" ry="2.5" style="stroke:#181818;stroke-width:0.5;" width="138.332" x="194.83" y="78.2969"/><rect fill="#F1F1F1" height="10" style="stroke:#181818;stroke-width:0.5;" width="15" x="313.162" y="83.2969"/><rect fill="#F1F1F1" height="2" style="stroke:#181818;stroke-width:0.5;" width="4" x="311.162" y="85.2969"/><rect fill="#F1F1F1" height="2" style="stroke:#181818;stroke-width:0.5;" width="4" x="311.162" y="89.2969"/><text fill="#000000" font-family="sans-serif" font-size="14" font-style="italic" lengthAdjust="spacing" textLength="96.332" x="210.83" y="111.292">&#171;component&#187;</text><text fill="#000000" font-family="sans-serif" font-size="14" lengthAdjust="spacing" textLength="60.6416" x="228.6752" y="127.5889">AvatarUI</text></g><!--entity MapUI--><g class="entity" data-entity="MapUI" data-source-line="8" data-uid="ent0006" id="entity_MapUI"><rect fill="#F1F1F1" height="62.5938" rx="2.5" ry="2.5" style="stroke:#181818;stroke-width:0.5;" width="138.332" x="367.83" y="78.2969"/><rect fill="#F1F1F1" height="10" style="stroke:#181818;stroke-width:0.5;" width="15" x="486.162" y="83.2969"/><rect fill="#F1F1F1" height="2" style="stroke:#181818;stroke-width:0.5;" width="4" x="484.162" y="85.2969"/><rect fill="#F1F1F1" height="2" style="stroke:#181818;stroke-width:0.5;" width="4" x="484.162" y="89.2969"/><text fill="#000000" font-family="sans-serif" font-size="14" font-style="italic" lengthAdjust="spacing" textLength="96.332" x="383.83" y="111.292">&#171;component&#187;</text><text fill="#000000" font-family="sans-serif" font-size="14" lengthAdjust="spacing" textLength="43.9209" x="410.0356" y="127.5889">MapUI</text></g><!--entity TaskUI--><g class="entity" data-entity="TaskUI" data-source-line="9" data-uid="ent0007" id="entity_TaskUI"><rect fill="#F1F1F1" height="62.5938" rx="2.5" ry="2.5" style="stroke:#181818;stroke-width:0.5;" width="138.332" x="540.83" y="78.2969"/><rect fill="#F1F1F1" height="10" style="stroke:#181818;stroke-width:0.5;" width="15" x="659.162" y="83.2969"/><rect fill="#F1F1F1" height="2" style="stroke:#181818;stroke-width:0.5;" width="4" x="657.162" y="85.2969"/><rect fill="#F1F1F1" height="2" style="stroke:#181818;stroke-width:0.5;" width="4" x="657.162" y="89.2969"/><text fill="#000000" font-family="sans-serif" font-size="14" font-style="italic" lengthAdjust="spacing" textLength="96.332" x="556.83" y="111.292">&#171;component&#187;</text><text fill="#000000" font-family="sans-serif" font-size="14" lengthAdjust="spacing" textLength="46.9082" x="581.5419" y="127.5889">TaskUI</text></g><!--entity ARUI--><g class="entity" data-entity="ARUI" data-source-line="10" data-uid="ent0008" id="entity_ARUI"><rect fill="#F1F1F1" height="62.5938" rx="2.5" ry="2.5" style="stroke:#181818;stroke-width:0.5;" width="138.332" x="886.83" y="78.2969"/><rect fill="#F1F1F1" height="10" style="stroke:#181818;stroke-width:0.5;" width="15" x="1005.162" y="83.2969"/><rect fill="#F1F1F1" height="2" style="stroke:#181818;stroke-width:0.5;" width="4" x="1003.162" y="85.2969"/><rect fill="#F1F1F1" height="2" style="stroke:#181818;stroke-width:0.5;" width="4" x="1003.162" y="89.2969"/><text fill="#000000" font-family="sans-serif" font-size="14" font-style="italic" lengthAdjust="spacing" textLength="96.332" x="902.83" y="111.292">&#171;component&#187;</text><text fill="#000000" font-family="sans-serif" font-size="14" lengthAdjust="spacing" textLength="33.6807" x="934.1557" y="127.5889">ARUI</text></g><!--entity PassportUI--><g class="entity" data-entity="PassportUI" data-source-line="11" data-uid="ent0009" id="entity_PassportUI"><rect fill="#F1F1F1" height="62.5938" rx="2.5" ry="2.5" style="stroke:#181818;stroke-width:0.5;" width="138.332" x="21.83" y="222.8869"/><rect fill="#F1F1F1" height="10" style="stroke:#181818;stroke-width:0.5;" width="15" x="140.162" y="227.8869"/><rect fill="#F1F1F1" height="2" style="stroke:#181818;stroke-width:0.5;" width="4" x="138.162" y="229.8869"/><rect fill="#F1F1F1" height="2" style="stroke:#181818;stroke-width:0.5;" width="4" x="138.162" y="233.8869"/><text fill="#000000" font-family="sans-serif" font-size="14" font-style="italic" lengthAdjust="spacing" textLength="96.332" x="37.83" y="255.882">&#171;component&#187;</text><text fill="#000000" font-family="sans-serif" font-size="14" lengthAdjust="spacing" textLength="74.6826" x="48.6547" y="272.1789">PassportUI</text></g><!--entity ParentUI--><g class="entity" data-entity="ParentUI" data-source-line="12" data-uid="ent0010" id="entity_ParentUI"><rect fill="#F1F1F1" height="62.5938" rx="2.5" ry="2.5" style="stroke:#181818;stroke-width:0.5;" width="138.332" x="194.83" y="222.8869"/><rect fill="#F1F1F1" height="10" style="stroke:#181818;stroke-width:0.5;" width="15" x="313.162" y="227.8869"/><rect fill="#F1F1F1" height="2" style="stroke:#181818;stroke-width:0.5;" width="4" x="311.162" y="229.8869"/><rect fill="#F1F1F1" height="2" style="stroke:#181818;stroke-width:0.5;" width="4" x="311.162" y="233.8869"/><text fill="#000000" font-family="sans-serif" font-size="14" font-style="italic" lengthAdjust="spacing" textLength="96.332" x="210.83" y="255.882">&#171;component&#187;</text><text fill="#000000" font-family="sans-serif" font-size="14" lengthAdjust="spacing" textLength="60.1289" x="228.9316" y="272.1789">ParentUI</text></g><!--entity GameManager--><g class="entity" data-entity="GameManager" data-source-line="16" data-uid="ent0012" id="entity_GameManager"><rect fill="#F1F1F1" height="62.5938" rx="2.5" ry="2.5" style="stroke:#181818;stroke-width:0.5;" width="138.332" x="1625.83" y="222.8869"/><rect fill="#F1F1F1" height="10" style="stroke:#181818;stroke-width:0.5;" width="15" x="1744.162" y="227.8869"/><rect fill="#F1F1F1" height="2" style="stroke:#181818;stroke-width:0.5;" width="4" x="1742.162" y="229.8869"/><rect fill="#F1F1F1" height="2" style="stroke:#181818;stroke-width:0.5;" width="4" x="1742.162" y="233.8869"/><text fill="#000000" font-family="sans-serif" font-size="14" font-style="italic" lengthAdjust="spacing" textLength="96.332" x="1641.83" y="255.882">&#171;component&#187;</text><text fill="#000000" font-family="sans-serif" font-size="14" lengthAdjust="spacing" textLength="68.4004" x="1655.7958" y="272.1789">GameMgr</text></g><!--entity TaskSystem--><g class="entity" data-entity="TaskSystem" data-source-line="17" data-uid="ent0013" id="entity_TaskSystem"><rect fill="#F1F1F1" height="62.5938" rx="2.5" ry="2.5" style="stroke:#181818;stroke-width:0.5;" width="138.332" x="1080.83" y="348.4869"/><rect fill="#F1F1F1" height="10" style="stroke:#181818;stroke-width:0.5;" width="15" x="1199.162" y="353.4869"/><rect fill="#F1F1F1" height="2" style="stroke:#181818;stroke-width:0.5;" width="4" x="1197.162" y="355.4869"/><rect fill="#F1F1F1" height="2" style="stroke:#181818;stroke-width:0.5;" width="4" x="1197.162" y="359.4869"/><text fill="#000000" font-family="sans-serif" font-size="14" font-style="italic" lengthAdjust="spacing" textLength="96.332" x="1096.83" y="381.482">&#171;component&#187;</text><text fill="#000000" font-family="sans-serif" font-size="14" lengthAdjust="spacing" textLength="84.7383" x="1102.6269" y="397.7789">TaskSystem</text></g><!--entity AvatarMgr--><g class="entity" data-entity="AvatarMgr" data-source-line="18" data-uid="ent0014" id="entity_AvatarMgr"><rect fill="#F1F1F1" height="62.5938" rx="2.5" ry="2.5" style="stroke:#181818;stroke-width:0.5;" width="138.332" x="1426.83" y="348.4869"/><rect fill="#F1F1F1" height="10" style="stroke:#181818;stroke-width:0.5;" width="15" x="1545.162" y="353.4869"/><rect fill="#F1F1F1" height="2" style="stroke:#181818;stroke-width:0.5;" width="4" x="1543.162" y="355.4869"/><rect fill="#F1F1F1" height="2" style="stroke:#181818;stroke-width:0.5;" width="4" x="1543.162" y="359.4869"/><text fill="#000000" font-family="sans-serif" font-size="14" font-style="italic" lengthAdjust="spacing" textLength="96.332" x="1442.83" y="381.482">&#171;component&#187;</text><text fill="#000000" font-family="sans-serif" font-size="14" lengthAdjust="spacing" textLength="72.9873" x="1454.5024" y="397.7789">AvatarMgr</text></g><!--entity ProgressSystem--><g class="entity" data-entity="ProgressSystem" data-source-line="19" data-uid="ent0015" id="entity_ProgressSystem"><rect fill="#F1F1F1" height="62.5938" rx="2.5" ry="2.5" style="stroke:#181818;stroke-width:0.5;" width="152.8135" x="1618.59" y="509.0769"/><rect fill="#F1F1F1" height="10" style="stroke:#181818;stroke-width:0.5;" width="15" x="1751.4035" y="514.0769"/><rect fill="#F1F1F1" height="2" style="stroke:#181818;stroke-width:0.5;" width="4" x="1749.4035" y="516.0769"/><rect fill="#F1F1F1" height="2" style="stroke:#181818;stroke-width:0.5;" width="4" x="1749.4035" y="520.0769"/><text fill="#000000" font-family="sans-serif" font-size="14" font-style="italic" lengthAdjust="spacing" textLength="96.332" x="1641.8307" y="542.072">&#171;component&#187;</text><text fill="#000000" font-family="sans-serif" font-size="14" lengthAdjust="spacing" textLength="112.8135" x="1633.59" y="558.3689">ProgressSystem</text></g><!--entity FlightMgr--><g class="entity" data-entity="FlightMgr" data-source-line="20" data-uid="ent0016" id="entity_FlightMgr"><rect fill="#F1F1F1" height="62.5938" rx="2.5" ry="2.5" style="stroke:#181818;stroke-width:0.5;" width="138.332" x="1253.83" y="348.4869"/><rect fill="#F1F1F1" height="10" style="stroke:#181818;stroke-width:0.5;" width="15" x="1372.162" y="353.4869"/><rect fill="#F1F1F1" height="2" style="stroke:#181818;stroke-width:0.5;" width="4" x="1370.162" y="355.4869"/><rect fill="#F1F1F1" height="2" style="stroke:#181818;stroke-width:0.5;" width="4" x="1370.162" y="359.4869"/><text fill="#000000" font-family="sans-serif" font-size="14" font-style="italic" lengthAdjust="spacing" textLength="96.332" x="1269.83" y="381.482">&#171;component&#187;</text><text fill="#000000" font-family="sans-serif" font-size="14" lengthAdjust="spacing" textLength="65.8027" x="1285.0946" y="397.7789">FlightMgr</text></g><!--entity NotificationMgr--><g class="entity" data-entity="NotificationMgr" data-source-line="21" data-uid="ent0017" id="entity_NotificationMgr"><rect fill="#F1F1F1" height="62.5938" rx="2.5" ry="2.5" style="stroke:#181818;stroke-width:0.5;" width="147.0508" x="1600.47" y="348.4869"/><rect fill="#F1F1F1" height="10" style="stroke:#181818;stroke-width:0.5;" width="15" x="1727.5208" y="353.4869"/><rect fill="#F1F1F1" height="2" style="stroke:#181818;stroke-width:0.5;" width="4" x="1725.5208" y="355.4869"/><rect fill="#F1F1F1" height="2" style="stroke:#181818;stroke-width:0.5;" width="4" x="1725.5208" y="359.4869"/><text fill="#000000" font-family="sans-serif" font-size="14" font-style="italic" lengthAdjust="spacing" textLength="96.332" x="1620.8294" y="381.482">&#171;component&#187;</text><text fill="#000000" font-family="sans-serif" font-size="14" lengthAdjust="spacing" textLength="107.0508" x="1615.47" y="397.7789">NotificationMgr</text></g><!--entity AREngineWrapper--><g class="entity" data-entity="AREngineWrapper" data-source-line="25" data-uid="ent0019" id="entity_AREngineWrapper"><rect fill="#F1F1F1" height="62.5938" rx="2.5" ry="2.5" style="stroke:#181818;stroke-width:0.5;" width="138.332" x="2359.83" y="509.0769"/><rect fill="#F1F1F1" height="10" style="stroke:#181818;stroke-width:0.5;" width="15" x="2478.162" y="514.0769"/><rect fill="#F1F1F1" height="2" style="stroke:#181818;stroke-width:0.5;" width="4" x="2476.162" y="516.0769"/><rect fill="#F1F1F1" height="2" style="stroke:#181818;stroke-width:0.5;" width="4" x="2476.162" y="520.0769"/><text fill="#000000" font-family="sans-serif" font-size="14" font-style="italic" lengthAdjust="spacing" textLength="96.332" x="2375.83" y="542.072">&#171;component&#187;</text><text fill="#000000" font-family="sans-serif" font-size="14" lengthAdjust="spacing" textLength="67.2861" x="2390.3529" y="558.3689">AREngine</text></g><!--entity ContentManager--><g class="entity" data-entity="ContentManager" data-source-line="26" data-uid="ent0020" id="entity_ContentManager"><rect fill="#F1F1F1" height="62.5938" rx="2.5" ry="2.5" style="stroke:#181818;stroke-width:0.5;" width="138.332" x="2013.83" y="509.0769"/><rect fill="#F1F1F1" height="10" style="stroke:#181818;stroke-width:0.5;" width="15" x="2132.162" y="514.0769"/><rect fill="#F1F1F1" height="2" style="stroke:#181818;stroke-width:0.5;" width="4" x="2130.162" y="516.0769"/><rect fill="#F1F1F1" height="2" style="stroke:#181818;stroke-width:0.5;" width="4" x="2130.162" y="520.0769"/><text fill="#000000" font-family="sans-serif" font-size="14" font-style="italic" lengthAdjust="spacing" textLength="96.332" x="2029.83" y="542.072">&#171;component&#187;</text><text fill="#000000" font-family="sans-serif" font-size="14" lengthAdjust="spacing" textLength="82.4004" x="2036.7958" y="558.3689">ContentMgr</text></g><!--entity PersistenceService--><g class="entity" data-entity="PersistenceService" data-source-line="27" data-uid="ent0021" id="entity_PersistenceService"><rect fill="#F1F1F1" height="62.5938" rx="2.5" ry="2.5" style="stroke:#181818;stroke-width:0.5;" width="138.332" x="1840.83" y="509.0769"/><rect fill="#F1F1F1" height="10" style="stroke:#181818;stroke-width:0.5;" width="15" x="1959.162" y="514.0769"/><rect fill="#F1F1F1" height="2" style="stroke:#181818;stroke-width:0.5;" width="4" x="1957.162" y="516.0769"/><rect fill="#F1F1F1" height="2" style="stroke:#181818;stroke-width:0.5;" width="4" x="1957.162" y="520.0769"/><text fill="#000000" font-family="sans-serif" font-size="14" font-style="italic" lengthAdjust="spacing" textLength="96.332" x="1856.83" y="542.072">&#171;component&#187;</text><text fill="#000000" font-family="sans-serif" font-size="14" lengthAdjust="spacing" textLength="80.5752" x="1864.7084" y="558.3689">Persistence</text></g><!--entity AudioManager--><g class="entity" data-entity="AudioManager" data-source-line="28" data-uid="ent0022" id="entity_AudioManager"><rect fill="#F1F1F1" height="62.5938" rx="2.5" ry="2.5" style="stroke:#181818;stroke-width:0.5;" width="138.332" x="2186.83" y="509.0769"/><rect fill="#F1F1F1" height="10" style="stroke:#181818;stroke-width:0.5;" width="15" x="2305.162" y="514.0769"/><rect fill="#F1F1F1" height="2" style="stroke:#181818;stroke-width:0.5;" width="4" x="2303.162" y="516.0769"/><rect fill="#F1F1F1" height="2" style="stroke:#181818;stroke-width:0.5;" width="4" x="2303.162" y="520.0769"/><text fill="#000000" font-family="sans-serif" font-size="14" font-style="italic" lengthAdjust="spacing" textLength="96.332" x="2202.83" y="542.072">&#171;component&#187;</text><text fill="#000000" font-family="sans-serif" font-size="14" lengthAdjust="spacing" textLength="66.5137" x="2217.7392" y="558.3689">AudioMgr</text></g><!--entity APIGateway--><g class="entity" data-entity="APIGateway" data-source-line="32" data-uid="ent0024" id="entity_APIGateway"><rect fill="#F1F1F1" height="62.5938" rx="2.5" ry="2.5" style="stroke:#181818;stroke-width:0.5;" width="138.332" x="2507.83" y="671.6769"/><rect fill="#F1F1F1" height="10" style="stroke:#181818;stroke-width:0.5;" width="15" x="2626.162" y="676.6769"/><rect fill="#F1F1F1" height="2" style="stroke:#181818;stroke-width:0.5;" width="4" x="2624.162" y="678.6769"/><rect fill="#F1F1F1" height="2" style="stroke:#181818;stroke-width:0.5;" width="4" x="2624.162" y="682.6769"/><text fill="#000000" font-family="sans-serif" font-size="14" font-style="italic" lengthAdjust="spacing" textLength="96.332" x="2523.83" y="704.672">&#171;component&#187;</text><text fill="#000000" font-family="sans-serif" font-size="14" lengthAdjust="spacing" textLength="83.9932" x="2529.9994" y="720.9689">APIGateway</text></g><!--entity ContentDB--><g class="entity" data-entity="ContentDB" data-source-line="33" data-uid="ent0025" id="entity_ContentDB"><rect fill="#F1F1F1" height="62.5938" rx="2.5" ry="2.5" style="stroke:#181818;stroke-width:0.5;" width="124.0381" x="2680.98" y="671.6769"/><rect fill="#F1F1F1" height="10" style="stroke:#181818;stroke-width:0.5;" width="15" x="2785.0181" y="676.6769"/><rect fill="#F1F1F1" height="2" style="stroke:#181818;stroke-width:0.5;" width="4" x="2783.0181" y="678.6769"/><rect fill="#F1F1F1" height="2" style="stroke:#181818;stroke-width:0.5;" width="4" x="2783.0181" y="682.6769"/><text fill="#000000" font-family="sans-serif" font-size="14" font-style="italic" lengthAdjust="spacing" textLength="82.0381" x="2696.98" y="704.672">&#171;database&#187;</text><text fill="#000000" font-family="sans-serif" font-size="14" lengthAdjust="spacing" textLength="76.0635" x="2699.9673" y="720.9689">ContentDB</text></g><!--entity AdminBackend--><g class="entity" data-entity="AdminBackend" data-source-line="34" data-uid="ent0026" id="entity_AdminBackend"><rect fill="#F1F1F1" height="62.5938" rx="2.5" ry="2.5" style="stroke:#181818;stroke-width:0.5;" width="145.2256" x="2840.39" y="671.6769"/><rect fill="#F1F1F1" height="10" style="stroke:#181818;stroke-width:0.5;" width="15" x="2965.6156" y="676.6769"/><rect fill="#F1F1F1" height="2" style="stroke:#181818;stroke-width:0.5;" width="4" x="2963.6156" y="678.6769"/><rect fill="#F1F1F1" height="2" style="stroke:#181818;stroke-width:0.5;" width="4" x="2963.6156" y="682.6769"/><text fill="#000000" font-family="sans-serif" font-size="14" font-style="italic" lengthAdjust="spacing" textLength="96.332" x="2859.8368" y="704.672">&#171;component&#187;</text><text fill="#000000" font-family="sans-serif" font-size="14" lengthAdjust="spacing" textLength="105.2256" x="2855.39" y="720.9689">AdminBackend</text></g><!--entity AR Platform API--><g class="entity" data-entity="AR Platform API" data-source-line="65" data-uid="ent0048" id="entity_AR Platform API"><ellipse cx="2366.0026" cy="702.9674" fill="#F1F1F1" rx="71.3026" ry="16.6605" style="stroke:#181818;stroke-width:0.5;"/><text fill="#000000" font-family="sans-serif" font-size="14" lengthAdjust="spacing" textLength="109.6416" x="2311.1818" y="707.6158">AR Platform API</text></g><!--entity Lokal Depolama API--><g class="entity" data-entity="Lokal Depolama API" data-source-line="66" data-uid="ent0050" id="entity_Lokal Depolama API"><ellipse cx="1909.9967" cy="702.9642" fill="#F1F1F1" rx="83.7867" ry="19.1573" style="stroke:#181818;stroke-width:0.5;"/><text fill="#000000" font-family="sans-serif" font-size="14" lengthAdjust="spacing" textLength="139.5215" x="1840.2359" y="707.6126">Lokal Depolama API</text></g><!--entity Ses Platform API--><g class="entity" data-entity="Ses Platform API" data-source-line="67" data-uid="ent0052" id="entity_Ses Platform API"><ellipse cx="2186.0045" cy="702.9718" fill="#F1F1F1" rx="73.5245" ry="17.1049" style="stroke:#181818;stroke-width:0.5;"/><text fill="#000000" font-family="sans-serif" font-size="14" lengthAdjust="spacing" textLength="115.1309" x="2128.4391" y="707.6202">Ses Platform API</text></g><!--link UIManager to GameManager--><g class="link" data-entity-1="UIManager" data-entity-2="GameManager" data-source-line="38" data-uid="lnk27" id="link_UIManager_GameManager"><path d="M852.58,136.4369 C858.09,138.0769 863.61,139.5869 869,140.8869 C1144.73,207.4669 1476.4564,237.483 1619.6064,248.103" fill="none" id="UIManager-to-GameManager" style="stroke:#181818;stroke-width:1;"/><polygon fill="#181818" points="1625.59,248.5469,1616.9106,243.892,1620.6037,248.177,1616.3187,251.8701,1625.59,248.5469" style="stroke:#181818;stroke-width:1;"/></g><!--link ARUI to GameManager--><g class="link" data-entity-1="ARUI" data-entity-2="GameManager" data-source-line="39" data-uid="lnk28" id="link_ARUI_GameManager"><path d="M1025.52,124.0069 C1166.46,151.2069 1478.4987,211.41 1619.4987,238.62" fill="none" id="ARUI-to-GameManager" style="stroke:#181818;stroke-width:1;"/><polygon fill="#181818" points="1625.39,239.7569,1617.311,234.124,1620.4806,238.8095,1615.7951,241.9791,1625.39,239.7569" style="stroke:#181818;stroke-width:1;"/></g><!--link TaskUI to TaskSystem--><g class="link" data-entity-1="TaskUI" data-entity-2="TaskSystem" data-source-line="40" data-uid="lnk29" id="link_TaskUI_TaskSystem"><path d="M671.94,141.3569 C775.97,193.0269 979.1662,293.9381 1082.9862,345.4981" fill="none" id="TaskUI-to-TaskSystem" style="stroke:#181818;stroke-width:1;"/><polygon fill="#181818" points="1088.36,348.1669,1082.0785,340.5812,1083.8818,345.9429,1078.5201,347.7462,1088.36,348.1669" style="stroke:#181818;stroke-width:1;"/></g><!--link GameManager to TaskSystem--><g class="link" data-entity-1="GameManager" data-entity-2="TaskSystem" data-source-line="42" data-uid="lnk30" id="link_GameManager_TaskSystem"><path d="M1625.48,266.2369 C1534.95,281.3269 1372.18,310.8469 1236,348.4869 C1230.51,350.0069 1230.5827,349.894 1224.9327,351.674" fill="none" id="GameManager-to-TaskSystem" style="stroke:#181818;stroke-width:1;"/><polygon fill="#181818" points="1219.21,353.4769,1228.996,354.5877,1223.9789,351.9745,1226.5921,346.9574,1219.21,353.4769" style="stroke:#181818;stroke-width:1;"/></g><!--link GameManager to AvatarMgr--><g class="link" data-entity-1="GameManager" data-entity-2="AvatarMgr" data-source-line="43" data-uid="lnk31" id="link_GameManager_AvatarMgr"><path d="M1645.55,285.8969 C1615.05,304.8469 1581.1566,325.8907 1550.6366,344.8507" fill="none" id="GameManager-to-AvatarMgr" style="stroke:#181818;stroke-width:1;"/><polygon fill="#181818" points="1545.54,348.0169,1555.2957,346.6654,1549.7872,345.3784,1551.0741,339.8699,1545.54,348.0169" style="stroke:#181818;stroke-width:1;"/></g><!--link GameManager to ProgressSystem--><g class="link" data-entity-1="GameManager" data-entity-2="ProgressSystem" data-source-line="44" data-uid="lnk32" id="link_GameManager_ProgressSystem"><path d="M1726.04,285.8469 C1740.92,302.7669 1757.19,325.0469 1765,348.4869 C1784.04,405.5769 1750.1817,466.4319 1723.0917,503.9619" fill="none" id="GameManager-to-ProgressSystem" style="stroke:#181818;stroke-width:1;"/><polygon fill="#181818" points="1719.58,508.8269,1728.0908,503.8705,1722.5064,504.7727,1721.6042,499.1883,1719.58,508.8269" style="stroke:#181818;stroke-width:1;"/></g><!--link GameManager to FlightMgr--><g class="link" data-entity-1="GameManager" data-entity-2="FlightMgr" data-source-line="45" data-uid="lnk33" id="link_GameManager_FlightMgr"><path d="M1625.5,277.3569 C1567.49,295.9869 1482.7,323.4869 1409,348.4869 C1403.6,350.3169 1403.6894,350.2628 1398.0894,352.2028" fill="none" id="GameManager-to-FlightMgr" style="stroke:#181818;stroke-width:1;"/><polygon fill="#181818" points="1392.42,354.1669,1402.2335,355.0004,1397.1445,352.5302,1399.6148,347.4412,1392.42,354.1669" style="stroke:#181818;stroke-width:1;"/></g><!--link GameManager to NotificationMgr--><g class="link" data-entity-1="GameManager" data-entity-2="NotificationMgr" data-source-line="46" data-uid="lnk34" id="link_GameManager_NotificationMgr"><path d="M1689.81,285.7369 C1686.58,304.7569 1683.4471,323.212 1680.2071,342.242" fill="none" id="GameManager-to-NotificationMgr" style="stroke:#181818;stroke-width:1;"/><polygon fill="#181818" points="1679.2,348.1569,1684.6538,339.9559,1680.0392,343.2278,1676.7673,338.6132,1679.2,348.1569" style="stroke:#181818;stroke-width:1;"/></g><!--link GameManager to AREngineWrapper--><g class="link" data-entity-1="GameManager" data-entity-2="AREngineWrapper" data-source-line="47" data-uid="lnk35" id="link_GameManager_AREngineWrapper"><path d="M1764.34,268.4269 C1886.98,293.8069 2147.62,356.7369 2343,466.0769 C2363.37,477.4769 2379.0036,490.0231 2394.5936,504.5731" fill="none" id="GameManager-to-AREngineWrapper" style="stroke:#181818;stroke-width:1;"/><polygon fill="#181818" points="2398.98,508.6669,2395.1296,499.6019,2395.3246,505.2554,2389.6712,505.4504,2398.98,508.6669" style="stroke:#181818;stroke-width:1;"/></g><!--link GameManager to ContentManager--><g class="link" data-entity-1="GameManager" data-entity-2="ContentManager" data-source-line="48" data-uid="lnk36" id="link_GameManager_ContentManager"><path d="M1742.14,285.8569 C1802.52,325.6469 1909.77,398.0269 1997,466.0769 C2014.32,479.5969 2028.4148,491.3885 2043.8848,504.7885" fill="none" id="GameManager-to-ContentManager" style="stroke:#181818;stroke-width:1;"/><polygon fill="#181818" points="2048.42,508.7169,2044.2361,499.8009,2044.6407,505.4432,2038.9983,505.8478,2048.42,508.7169" style="stroke:#181818;stroke-width:1;"/></g><!--link GameManager to PersistenceService--><g class="link" data-entity-1="GameManager" data-entity-2="PersistenceService" data-source-line="49" data-uid="lnk37" id="link_GameManager_PersistenceService"><path d="M1728.85,285.6769 C1738.98,295.4369 1749.83,306.5569 1759,317.4869 C1812.77,381.5569 1862.2661,459.7321 1888.9061,503.8021" fill="none" id="GameManager-to-PersistenceService" style="stroke:#181818;stroke-width:1;"/><polygon fill="#181818" points="1892.01,508.9369,1890.7773,499.1655,1889.4234,504.6579,1883.931,503.304,1892.01,508.9369" style="stroke:#181818;stroke-width:1;"/></g><!--link GameManager to AudioManager--><g class="link" data-entity-1="GameManager" data-entity-2="AudioManager" data-source-line="50" data-uid="lnk38" id="link_GameManager_AudioManager"><path d="M1764.58,278.8769 C1860.01,312.9469 2035.04,381.1169 2170,466.0769 C2189.42,478.3069 2204.6186,490.6328 2220.2086,504.7928" fill="none" id="GameManager-to-AudioManager" style="stroke:#181818;stroke-width:1;"/><polygon fill="#181818" points="2224.65,508.8269,2220.6772,499.8148,2220.9488,505.4652,2215.2985,505.7368,2224.65,508.8269" style="stroke:#181818;stroke-width:1;"/></g><!--link TaskSystem to ContentManager--><g class="link" data-entity-1="TaskSystem" data-entity-2="ContentManager" data-source-line="52" data-uid="lnk39" id="link_TaskSystem_ContentManager"><path d="M1219.5,406.9769 C1225.03,408.5369 1230.58,409.9369 1236,411.0769 C1499.44,466.7269 1571.3,440.7869 1840,458.0769 C1857.43,459.1969 1980.77,459.6269 1997,466.0769 C2019.97,475.2069 2036.9485,488.8333 2052.5485,504.6633" fill="none" id="TaskSystem-to-ContentManager" style="stroke:#181818;stroke-width:1;"/><polygon fill="#181818" points="2056.76,508.9369,2053.2918,499.7189,2053.2504,505.3756,2047.5937,505.3342,2056.76,508.9369" style="stroke:#181818;stroke-width:1;"/></g><!--link TaskSystem to ProgressSystem--><g class="link" data-entity-1="TaskSystem" data-entity-2="ProgressSystem" data-source-line="53" data-uid="lnk40" id="link_TaskSystem_ProgressSystem"><path d="M1219.34,405.6469 C1224.96,407.5369 1230.57,409.3669 1236,411.0769 C1369.35,453.1569 1520.866,494.0657 1612.396,518.0557" fill="none" id="TaskSystem-to-ProgressSystem" style="stroke:#181818;stroke-width:1;"/><polygon fill="#181818" points="1618.2,519.5769,1610.5082,513.4257,1613.3634,518.3092,1608.4799,521.1644,1618.2,519.5769" style="stroke:#181818;stroke-width:1;"/></g><!--link ProgressSystem to PersistenceService--><g class="link" data-entity-1="ProgressSystem" data-entity-2="PersistenceService" data-source-line="54" data-uid="lnk41" id="link_ProgressSystem_PersistenceService"><path d="M1771.85,540.3769 C1794.69,540.3769 1811.54,540.3769 1834.38,540.3769" fill="none" id="ProgressSystem-to-PersistenceService" style="stroke:#181818;stroke-width:1;"/><polygon fill="#181818" points="1840.38,540.3769,1831.38,536.3769,1835.38,540.3769,1831.38,544.3769,1840.38,540.3769" style="stroke:#181818;stroke-width:1;"/></g><!--link AvatarMgr to ContentManager--><g class="link" data-entity-1="AvatarMgr" data-entity-2="ContentManager" data-source-line="55" data-uid="lnk42" id="link_AvatarMgr_ContentManager"><path d="M1565.39,406.5469 C1571.3,408.2569 1577.22,409.7969 1583,411.0769 C1764.21,451.2669 1830.39,384.2669 1997,466.0769 C2018.48,476.6269 2034.7006,489.6024 2050.3206,504.6624" fill="none" id="AvatarMgr-to-ContentManager" style="stroke:#181818;stroke-width:1;"/><polygon fill="#181818" points="2054.64,508.8269,2050.9373,499.7005,2051.0405,505.3565,2045.3846,505.4597,2054.64,508.8269" style="stroke:#181818;stroke-width:1;"/></g><!--link AvatarMgr to PersistenceService--><g class="link" data-entity-1="AvatarMgr" data-entity-2="PersistenceService" data-source-line="56" data-uid="lnk43" id="link_AvatarMgr_PersistenceService"><path d="M1565.5,406.0969 C1571.38,407.9069 1577.27,409.5969 1583,411.0769 C1658.11,430.5669 1681.72,415.5469 1755,441.0769 C1776.97,448.7369 1781.1,454.0169 1801,466.0769 C1822.94,479.3769 1841.7011,491.7545 1861.3811,505.2445" fill="none" id="AvatarMgr-to-PersistenceService" style="stroke:#181818;stroke-width:1;"/><polygon fill="#181818" points="1866.33,508.6369,1861.1681,500.2491,1862.2059,505.8099,1856.645,506.8477,1866.33,508.6369" style="stroke:#181818;stroke-width:1;"/></g><!--link FlightMgr to ContentManager--><g class="link" data-entity-1="FlightMgr" data-entity-2="ContentManager" data-source-line="57" data-uid="lnk44" id="link_FlightMgr_ContentManager"><path d="M1392.49,407.0169 C1398.03,408.5669 1403.57,409.9569 1409,411.0769 C1595.72,449.7769 1647.76,417.5869 1837,441.0769 C1879.57,446.3669 1889.59,451.6769 1932,458.0769 C1960.78,462.4269 1970.35,454.3669 1997,466.0769 C2019.27,475.8669 2035.8756,489.1461 2051.4856,504.5961" fill="none" id="FlightMgr-to-ContentManager" style="stroke:#181818;stroke-width:1;"/><polygon fill="#181818" points="2055.75,508.8169,2052.1672,499.6428,2052.1963,505.2996,2046.5395,505.3287,2055.75,508.8169" style="stroke:#181818;stroke-width:1;"/></g><!--link FlightMgr to PersistenceService--><g class="link" data-entity-1="FlightMgr" data-entity-2="PersistenceService" data-source-line="58" data-uid="lnk45" id="link_FlightMgr_PersistenceService"><path d="M1392.58,406.6069 C1398.1,408.2469 1403.62,409.7669 1409,411.0769 C1430.37,416.2869 1780.46,458.2169 1801,466.0769 C1827.19,476.1069 1848.6,489.8003 1868.74,505.0803" fill="none" id="FlightMgr-to-PersistenceService" style="stroke:#181818;stroke-width:1;"/><polygon fill="#181818" points="1873.52,508.7069,1868.7677,500.0804,1869.5367,505.6848,1863.9323,506.4537,1873.52,508.7069" style="stroke:#181818;stroke-width:1;"/></g><!--link GameManager to APIGateway--><g class="link" data-entity-1="GameManager" data-entity-2="APIGateway" data-source-line="61" data-uid="lnk46" id="link_GameManager_APIGateway"><path d="M1764.53,265.2669 C1940.6,291.9869 2398.3,369.2569 2514,466.0769 C2567.74,511.0569 2573.32,535.8669 2591,603.6769 C2596.83,626.0269 2594.2697,646.1104 2589.0297,665.7104" fill="none" id="GameManager-to-APIGateway" style="stroke:#181818;stroke-width:1;stroke-dasharray:7.0,7.0;"/><polygon fill="#181818" points="2587.48,671.5069,2593.6688,663.8453,2588.7714,666.6765,2585.9402,661.7791,2587.48,671.5069" style="stroke:#181818;stroke-width:1;"/><text fill="#000000" font-family="sans-serif" font-size="13" lengthAdjust="spacing" textLength="180.0195" x="2504" y="454.1438">&#171;use&#187; (Senkronizasyon vb.)</text></g><!--link ContentManager to APIGateway--><g class="link" data-entity-1="ContentManager" data-entity-2="APIGateway" data-source-line="62" data-uid="lnk47" id="link_ContentManager_APIGateway"><path d="M2121.94,572.0769 C2135.98,581.4369 2152.46,590.5869 2169,595.6769 C2219.58,611.2269 2355.82,590.2269 2407,603.6769 C2430.26,609.7869 2434.01,616.9169 2455,628.6769 C2479.14,642.1969 2500.3849,654.7971 2522.4149,668.2071" fill="none" id="ContentManager-to-APIGateway" style="stroke:#181818;stroke-width:1;stroke-dasharray:7.0,7.0;"/><polygon fill="#181818" points="2527.54,671.3269,2521.9321,663.2305,2523.269,668.7271,2517.7724,670.064,2527.54,671.3269" style="stroke:#181818;stroke-width:1;"/><text fill="#000000" font-family="sans-serif" font-size="13" lengthAdjust="spacing" textLength="142.7334" x="2442" y="616.7438">&#171;use&#187; (&#304;&#231;erik &#304;ndirme)</text></g><!--link AREngineWrapper to AR Platform API--><g class="link" data-entity-1="AREngineWrapper" data-entity-2="AR Platform API" data-source-line="65" data-uid="lnk49" id="link_AREngineWrapper_AR Platform API"><path d="M2386.07,572.1469 C2376.73,581.1569 2368.12,591.8069 2363,603.6769 C2351.37,630.6369 2355.3366,659.9085 2360.1066,680.0385" fill="none" id="AREngineWrapper-to-AR Platform API" style="stroke:#181818;stroke-width:1;stroke-dasharray:7.0,7.0;"/><polygon fill="#181818" points="2361.49,685.8769,2363.307,676.1971,2360.3371,681.0116,2355.5226,678.0417,2361.49,685.8769" style="stroke:#181818;stroke-width:1;"/><text fill="#000000" font-family="sans-serif" font-size="13" lengthAdjust="spacing" textLength="38.9175" x="2364" y="616.7438">&#171;use&#187;</text></g><!--link PersistenceService to Lokal Depolama API--><g class="link" data-entity-1="PersistenceService" data-entity-2="Lokal Depolama API" data-source-line="66" data-uid="lnk51" id="link_PersistenceService_Lokal Depolama API"><path d="M1910,571.9569 C1910,604.9069 1910,650.2569 1910,677.5169" fill="none" id="PersistenceService-to-Lokal Depolama API" style="stroke:#181818;stroke-width:1;stroke-dasharray:7.0,7.0;"/><polygon fill="#181818" points="1910,683.5169,1914,674.5169,1910,678.5169,1906,674.5169,1910,683.5169" style="stroke:#181818;stroke-width:1;"/><text fill="#000000" font-family="sans-serif" font-size="13" lengthAdjust="spacing" textLength="38.9175" x="1911" y="616.7438">&#171;use&#187;</text></g><!--link AudioManager to Ses Platform API--><g class="link" data-entity-1="AudioManager" data-entity-2="Ses Platform API" data-source-line="67" data-uid="lnk53" id="link_AudioManager_Ses Platform API"><path d="M2242.67,571.9569 C2227.91,605.8169 2207.0776,653.6068 2195.4776,680.2168" fill="none" id="AudioManager-to-Ses Platform API" style="stroke:#181818;stroke-width:1;stroke-dasharray:7.0,7.0;"/><polygon fill="#181818" points="2193.08,685.7169,2200.3432,679.0651,2195.078,681.1334,2193.0097,675.8683,2193.08,685.7169" style="stroke:#181818;stroke-width:1;"/><text fill="#000000" font-family="sans-serif" font-size="13" lengthAdjust="spacing" textLength="38.9175" x="2228" y="616.7438">&#171;use&#187;</text></g><!--SRC=[VLKzZzD04EtzAqRN41UNWXAT8YK4eWW2KKn4WIZcuZspidVNsjq4-H0rFoCbxQMXeellVp5s4dzka58uy-RDp9jzQrjk4mRJur-P8Rp3vpr_u70B4vwmvpsJCEKPHXf5Ve31Yktu8_Cz4tEP8WLXeqIg99Csi1cLsOhafUUbk8anOd2pdbD5Ar3cXnluuG5yMSyNaVuATtSLSJG2D41nbCJHHT82kLpFEra5CDwXHUs45fWwuv_GnEvQAsTuYSQaIjiheARdFlIpgJcBjWaA119ayqE-hxJFK32t-XAfzHSp1vcnJ5pTGRzEEPzMaMR6N2M_JNZqpRh97vIbez-WvKewCfeQZxzOp7N8OWYOtd6JC7tME5wzaH6Np27o0dtMcAOdeQ-Lj8Ixbt81wxqicJQSbCcDgtu3BQVQi7AWRSYLky49EfTloflG0vDXBOx3u6DgU4RanByeNSvdQDbtp1oxFCy-dHHOI0TsZuQTpoyKN9uxE7Ry0YPOU4Oa-O5-SO8Q1bEMKZOfuypuNdLNuFPsrF9EuUbUy7G3od1jBCzhf7InBbHPheUq3TU3Axlra8xP-YqxPkdY7NFqvkfxeTUXUVfUhTvLleDsLBV_NkjVBT7Le0qwsDKcNUmsw62Jgoh_miNTXS-IyXr57iiFhGKDXxIWok3mYdowBGmCWu39M2l97z5GETZT3tslFSv_oFdJyJVTfXZo9nboBUXJGgFLrqp2Ca7xeBJetuBY-nEeR6jXTln3yZGNljUnITbwC5xLPMWElvx0w-_cH7clOao0hfagNzqTLjCgf_o0cMiz_W40]--></g></svg>