<svg xmlns="http://www.w3.org/2000/svg" xmlns:xlink="http://www.w3.org/1999/xlink" contentStyleType="text/css" data-diagram-type="DESCRIPTION" height="852px" preserveAspectRatio="none" style="width:1883px;height:852px;background:#FFFFFF;" version="1.1" viewBox="0 0 1883 852" width="1883px" zoomAndPan="magnify"><title>D&#252;nya Ka&#351;ifi - Deployment Diyagram&#305; (Revize 2)</title><defs/><g><g class="title" data-source-line="1"><text fill="#000000" font-family="sans-serif" font-size="14" font-weight="bold" lengthAdjust="spacing" textLength="380.0576" x="744.8612" y="22.9951">D&#252;nya Ka&#351;ifi - Deployment Diyagram&#305; (Revize 2)</text></g><!--cluster MobileDevice--><g class="cluster" data-entity="MobileDevice" data-source-line="5" data-uid="ent0003" id="cluster_MobileDevice"><polygon fill="none" points="1247.78,53.2969,1257.78,43.2969,1866.78,43.2969,1866.78,316.6069,1856.78,326.6069,1247.78,326.6069,1247.78,53.2969" style="stroke:#181818;stroke-width:1;"/><line style="stroke:#181818;stroke-width:1;" x1="1856.78" x2="1866.78" y1="53.2969" y2="43.2969"/><line style="stroke:#181818;stroke-width:1;" x1="1247.78" x2="1856.78" y1="53.2969" y2="53.2969"/><line style="stroke:#181818;stroke-width:1;" x1="1856.78" x2="1856.78" y1="53.2969" y2="326.6069"/><text fill="#000000" font-family="sans-serif" font-size="14" font-weight="bold" lengthAdjust="spacing" textLength="202.4121" x="1452.0739" y="69.292">Mobil Cihaz (iOS/Android)</text></g><!--cluster Cloud Platform (?rn: AWS)--><g class="cluster" data-entity="Cloud Platform (&#214;rn: AWS)" data-source-line="11" data-uid="ent0007" id="cluster_Cloud Platform (&#214;rn: AWS)"><path d="M97.7618,211.296 C120.2492,164.7888 159.2243,174.8592 182.4808,210.5027 C207.6593,175.4253 240.0653,184.433 258.7605,217.735 C279.0147,176.3259 305.9687,173.1468 332.9437,211.483 C357.4941,175.4819 391.3726,176.7319 411.2611,216.3137 C428.5879,171.8526 469.2585,165.5759 496.1632,206.8263 C526.6045,169.021 559.6208,176.5367 581.8194,215.9677 C597.1666,177.6539 624.138,172.3362 650.3024,205.6212 C682.5209,171.1692 713.2925,176.3783 736.7832,215.8337 C763.568,183.3209 794.1837,175.7611 819.0123,217.986 C842.9277,178.8383 869.0425,182.0823 893.7674,217.1708 C916.8079,188.5229 943.2352,188.2741 964.9139,218.8079 C990.7629,179.8411 1019.8307,171.35 1050.5234,213.709 C1076.9797,170.6803 1101.0138,180.923 1129.0184,212.0705 C1151.2545,170.3945 1188.1979,173.5339 1207.78,214.5969 C1210.9866,216.2302 1210.6495,219.2589 1207.9742,221.0687 C1260.93,242.457 1267.069,274.0795 1223.517,311.9694 C1264.0407,341.6357 1262.3293,380.6307 1222.4673,409.4312 C1272.5463,430.5011 1283.014,479.9488 1233.8977,512.0661 C1281.5437,539.5507 1267.5989,577.8236 1229.5763,601.1526 C1277.0545,634.6179 1267.3882,677.7971 1215.8217,697.0575 C1253.6488,734.7447 1255.0369,766.1327 1200.78,788.7069 C1205.3103,785.6093 1209.3424,787.8114 1210.3832,792.8338 C1182.5889,828.4607 1158.9076,829.1844 1132.4983,791.3652 C1106.9195,833.6076 1077.301,829.894 1052.2526,790.8416 C1029.6302,829.3474 1002.9447,830.4385 976.673,794.5489 C955.9972,839.7829 911.2849,836.0229 886.039,799.6229 C861.4934,834.4504 837.1372,827.7117 814.0278,798.02 C785.6237,843.6634 757.0567,839.288 729.4907,797.2123 C708.5221,828.3009 681.3963,828.0079 658.3019,799.763 C630.418,845.466 603.9951,845.2741 572.0538,803.776 C541.9391,832.7389 517.4918,834.6417 498.5153,792.2904 C475.1449,825.6356 444.1438,829.3237 418.0721,795.5269 C391.6334,840.2335 357.4801,827.2083 334.0435,792.3561 C316.9577,826.0398 281.42,832.6692 259.3622,797.7703 C235.5797,828.4979 208.6342,836.9165 184.1779,798.5029 C150.7229,840.1521 103.8193,830.3693 85.78,781.7069 C89.5235,777.3193 93.2407,776.5286 96.8354,781.8759 C55.1625,763.4449 51.2149,726.9947 85.3352,698.1528 C35.9732,673.0504 43.4105,627.1322 83.6935,600.5223 C35.5066,569.3198 37.0556,532.8203 85.552,503.4693 C41.5209,477.479 38.4818,435.9501 87.5306,411.9726 C33.385,381.7157 33.6128,343.6032 83.7874,309.5344 C37.8141,270.8377 34.4064,237.0885 92.78,207.5969 C96.3398,206.2409 97.5991,208.0768 97.7618,211.296" fill="none" style="stroke:#181818;stroke-width:1;"/><text fill="#000000" font-family="sans-serif" font-size="14" font-weight="bold" lengthAdjust="spacing" textLength="211.2305" x="541.1648" y="225.592">Cloud Platform (&#214;rn: AWS)</text></g><!--cluster APIServer--><g class="cluster" data-entity="APIServer" data-source-line="12" data-uid="ent0008" id="cluster_APIServer"><polygon fill="none" points="109.78,260.5969,119.78,250.5969,292.78,250.5969,292.78,474.8969,282.78,484.8969,109.78,484.8969,109.78,260.5969" style="stroke:#181818;stroke-width:1;"/><line style="stroke:#181818;stroke-width:1;" x1="282.78" x2="292.78" y1="260.5969" y2="250.5969"/><line style="stroke:#181818;stroke-width:1;" x1="109.78" x2="282.78" y1="260.5969" y2="260.5969"/><line style="stroke:#181818;stroke-width:1;" x1="282.78" x2="282.78" y1="260.5969" y2="484.8969"/><text fill="#000000" font-family="sans-serif" font-size="14" font-weight="bold" lengthAdjust="spacing" textLength="107.7275" x="143.4162" y="276.592">API Sunucusu</text></g><!--cluster DBServer--><g class="cluster" data-entity="DBServer" data-source-line="15" data-uid="ent0010" id="cluster_DBServer"><polygon fill="none" points="263.78,595.6869,273.78,585.6869,575.78,585.6869,575.78,754.7069,565.78,764.7069,263.78,764.7069,263.78,595.6869" style="stroke:#181818;stroke-width:1;"/><line style="stroke:#181818;stroke-width:1;" x1="565.78" x2="575.78" y1="595.6869" y2="585.6869"/><line style="stroke:#181818;stroke-width:1;" x1="263.78" x2="565.78" y1="595.6869" y2="595.6869"/><line style="stroke:#181818;stroke-width:1;" x1="565.78" x2="565.78" y1="595.6869" y2="764.7069"/><text fill="#000000" font-family="sans-serif" font-size="14" font-weight="bold" lengthAdjust="spacing" textLength="163.8301" x="333.865" y="611.682">Veritaban&#305; Sunucusu</text></g><!--cluster CDN--><g class="cluster" data-entity="CDN" data-source-line="18" data-uid="ent0012" id="cluster_CDN"><polygon fill="none" points="332.78,260.5969,342.78,250.5969,711.78,250.5969,711.78,474.8969,701.78,484.8969,332.78,484.8969,332.78,260.5969" style="stroke:#181818;stroke-width:1;"/><line style="stroke:#181818;stroke-width:1;" x1="701.78" x2="711.78" y1="260.5969" y2="250.5969"/><line style="stroke:#181818;stroke-width:1;" x1="332.78" x2="701.78" y1="260.5969" y2="260.5969"/><line style="stroke:#181818;stroke-width:1;" x1="701.78" x2="701.78" y1="260.5969" y2="484.8969"/><text fill="#000000" font-family="sans-serif" font-size="14" font-weight="bold" lengthAdjust="spacing" textLength="33.6123" x="501.4738" y="276.592">CDN</text></g><!--cluster AdminWebServer--><g class="cluster" data-entity="AdminWebServer" data-source-line="22" data-uid="ent0015" id="cluster_AdminWebServer"><polygon fill="none" points="751.78,418.8969,761.78,408.8969,1183.78,408.8969,1183.78,654.6969,1173.78,664.6969,751.78,664.6969,751.78,418.8969" style="stroke:#181818;stroke-width:1;"/><line style="stroke:#181818;stroke-width:1;" x1="1173.78" x2="1183.78" y1="418.8969" y2="408.8969"/><line style="stroke:#181818;stroke-width:1;" x1="751.78" x2="1173.78" y1="418.8969" y2="418.8969"/><line style="stroke:#181818;stroke-width:1;" x1="1173.78" x2="1173.78" y1="418.8969" y2="664.6969"/><text fill="#000000" font-family="sans-serif" font-size="14" font-weight="bold" lengthAdjust="spacing" textLength="171.4658" x="878.0471" y="434.892">Admin Web Sunucusu</text></g><!--entity App--><g class="entity" data-entity="App" data-source-line="6" data-uid="ent0004" id="entity_App"><rect fill="#F1F1F1" height="39.2969" rx="2.5" ry="2.5" style="stroke:#181818;stroke-width:0.5;" width="149.4033" x="1272.08" y="94.2969"/><polygon fill="#F1F1F1" points="1404.4833,99.2969,1404.4833,113.2969,1416.4833,113.2969,1416.4833,105.2969,1410.4833,99.2969,1404.4833,99.2969" style="stroke:#181818;stroke-width:0.5;"/><line style="stroke:#181818;stroke-width:0.5;" x1="1410.4833" x2="1410.4833" y1="99.2969" y2="105.2969"/><line style="stroke:#181818;stroke-width:0.5;" x1="1416.4833" x2="1410.4833" y1="105.2969" y2="105.2969"/><text fill="#000000" font-family="sans-serif" font-size="14" lengthAdjust="spacing" textLength="119.4033" x="1282.08" y="120.292">D&#252;nya Ka&#351;ifi App</text></g><!--entity LocalARAssets--><g class="entity" data-entity="LocalARAssets" data-source-line="7" data-uid="ent0005" id="entity_LocalARAssets"><rect fill="#F1F1F1" height="39.2969" rx="2.5" ry="2.5" style="stroke:#181818;stroke-width:0.5;" width="157.0596" x="1456.25" y="94.2969"/><polygon fill="#F1F1F1" points="1596.3096,99.2969,1596.3096,113.2969,1608.3096,113.2969,1608.3096,105.2969,1602.3096,99.2969,1596.3096,99.2969" style="stroke:#181818;stroke-width:0.5;"/><line style="stroke:#181818;stroke-width:0.5;" x1="1602.3096" x2="1602.3096" y1="99.2969" y2="105.2969"/><line style="stroke:#181818;stroke-width:0.5;" x1="1608.3096" x2="1602.3096" y1="105.2969" y2="105.2969"/><text fill="#000000" font-family="sans-serif" font-size="14" lengthAdjust="spacing" textLength="127.0596" x="1466.25" y="120.292">Lokal AR Varl&#305;klar&#305;</text></g><!--entity LocalData--><g class="entity" data-entity="LocalData" data-source-line="8" data-uid="ent0006" id="entity_LocalData"><path d="M1648.49,101.2969 C1648.49,91.2969 1745.7883,91.2969 1745.7883,91.2969 C1745.7883,91.2969 1843.0867,91.2969 1843.0867,101.2969 L1843.0867,126.5938 C1843.0867,136.5938 1745.7883,136.5938 1745.7883,136.5938 C1745.7883,136.5938 1648.49,136.5938 1648.49,126.5938 L1648.49,101.2969" fill="#F1F1F1" style="stroke:#181818;stroke-width:0.5;"/><path d="M1648.49,101.2969 C1648.49,111.2969 1745.7883,111.2969 1745.7883,111.2969 C1745.7883,111.2969 1843.0867,111.2969 1843.0867,101.2969" fill="none" style="stroke:#181818;stroke-width:0.5;"/><text fill="#000000" font-family="sans-serif" font-size="14" lengthAdjust="spacing" textLength="174.5967" x="1658.49" y="128.292">Lokal Veritaban&#305; (SQLite)</text></g><!--entity APIService--><g class="entity" data-entity="APIService" data-source-line="13" data-uid="ent0009" id="entity_APIService"><rect fill="#F1F1F1" height="39.2969" rx="2.5" ry="2.5" style="stroke:#181818;stroke-width:0.5;" width="103.2129" x="165.18" y="298.5969"/><polygon fill="#F1F1F1" points="251.3929,303.5969,251.3929,317.5969,263.3929,317.5969,263.3929,309.5969,257.3929,303.5969,251.3929,303.5969" style="stroke:#181818;stroke-width:0.5;"/><line style="stroke:#181818;stroke-width:0.5;" x1="257.3929" x2="257.3929" y1="303.5969" y2="309.5969"/><line style="stroke:#181818;stroke-width:0.5;" x1="263.3929" x2="257.3929" y1="309.5969" y2="309.5969"/><text fill="#000000" font-family="sans-serif" font-size="14" lengthAdjust="spacing" textLength="73.2129" x="175.18" y="324.592">API Servisi</text></g><!--entity MainDB--><g class="entity" data-entity="MainDB" data-source-line="16" data-uid="ent0011" id="entity_MainDB"><path d="M287.94,643.6869 C287.94,633.6869 419.7838,633.6869 419.7838,633.6869 C419.7838,633.6869 551.6275,633.6869 551.6275,643.6869 L551.6275,668.9838 C551.6275,678.9838 419.7838,678.9838 419.7838,678.9838 C419.7838,678.9838 287.94,678.9838 287.94,668.9838 L287.94,643.6869" fill="#F1F1F1" style="stroke:#181818;stroke-width:0.5;"/><path d="M287.94,643.6869 C287.94,653.6869 419.7838,653.6869 419.7838,653.6869 C419.7838,653.6869 551.6275,653.6869 551.6275,643.6869" fill="none" style="stroke:#181818;stroke-width:0.5;"/><text fill="#000000" font-family="sans-serif" font-size="14" lengthAdjust="spacing" textLength="243.6875" x="297.94" y="670.682">Uygulama Veritaban&#305; (PostgreSQL)</text></g><!--entity RemoteARAssets--><g class="entity" data-entity="RemoteARAssets" data-source-line="19" data-uid="ent0013" id="entity_RemoteARAssets"><rect fill="#F1F1F1" height="39.2969" rx="2.5" ry="2.5" style="stroke:#181818;stroke-width:0.5;" width="154.4004" x="533.58" y="298.5969"/><polygon fill="#F1F1F1" points="670.9804,303.5969,670.9804,317.5969,682.9804,317.5969,682.9804,309.5969,676.9804,303.5969,670.9804,303.5969" style="stroke:#181818;stroke-width:0.5;"/><line style="stroke:#181818;stroke-width:0.5;" x1="676.9804" x2="676.9804" y1="303.5969" y2="309.5969"/><line style="stroke:#181818;stroke-width:0.5;" x1="682.9804" x2="676.9804" y1="309.5969" y2="309.5969"/><text fill="#000000" font-family="sans-serif" font-size="14" lengthAdjust="spacing" textLength="124.4004" x="543.58" y="324.592">Uzak AR Varl&#305;klar&#305;</text></g><!--entity MediaContent--><g class="entity" data-entity="MediaContent" data-source-line="20" data-uid="ent0014" id="entity_MediaContent"><rect fill="#F1F1F1" height="39.2969" rx="2.5" ry="2.5" style="stroke:#181818;stroke-width:0.5;" width="141.2344" x="357.17" y="298.5969"/><polygon fill="#F1F1F1" points="481.4044,303.5969,481.4044,317.5969,493.4044,317.5969,493.4044,309.5969,487.4044,303.5969,481.4044,303.5969" style="stroke:#181818;stroke-width:0.5;"/><line style="stroke:#181818;stroke-width:0.5;" x1="487.4044" x2="487.4044" y1="303.5969" y2="309.5969"/><line style="stroke:#181818;stroke-width:0.5;" x1="493.4044" x2="487.4044" y1="309.5969" y2="309.5969"/><text fill="#000000" font-family="sans-serif" font-size="14" lengthAdjust="spacing" textLength="111.2344" x="367.17" y="324.592">Medya &#304;&#231;erikleri</text></g><!--entity AdminUI--><g class="entity" data-entity="AdminUI" data-source-line="23" data-uid="ent0016" id="entity_AdminUI"><rect fill="#F1F1F1" height="39.2969" rx="2.5" ry="2.5" style="stroke:#181818;stroke-width:0.5;" width="151.1328" x="1008.22" y="456.8969"/><polygon fill="#F1F1F1" points="1142.3528,461.8969,1142.3528,475.8969,1154.3528,475.8969,1154.3528,467.8969,1148.3528,461.8969,1142.3528,461.8969" style="stroke:#181818;stroke-width:0.5;"/><line style="stroke:#181818;stroke-width:0.5;" x1="1148.3528" x2="1148.3528" y1="461.8969" y2="467.8969"/><line style="stroke:#181818;stroke-width:0.5;" x1="1154.3528" x2="1148.3528" y1="467.8969" y2="467.8969"/><text fill="#000000" font-family="sans-serif" font-size="14" lengthAdjust="spacing" textLength="121.1328" x="1018.22" y="482.892">Y&#246;netici Paneli UI</text></g><!--entity AdminBackend--><g class="entity" data-entity="AdminBackend" data-source-line="24" data-uid="ent0017" id="entity_AdminBackend"><rect fill="#F1F1F1" height="39.2969" rx="2.5" ry="2.5" style="stroke:#181818;stroke-width:0.5;" width="197.1182" x="776.23" y="456.8969"/><polygon fill="#F1F1F1" points="956.3482,461.8969,956.3482,475.8969,968.3482,475.8969,968.3482,467.8969,962.3482,461.8969,956.3482,461.8969" style="stroke:#181818;stroke-width:0.5;"/><line style="stroke:#181818;stroke-width:0.5;" x1="962.3482" x2="962.3482" y1="461.8969" y2="467.8969"/><line style="stroke:#181818;stroke-width:0.5;" x1="968.3482" x2="962.3482" y1="467.8969" y2="467.8969"/><text fill="#000000" font-family="sans-serif" font-size="14" lengthAdjust="spacing" textLength="167.1182" x="786.23" y="482.892">Y&#246;netici Paneli Backend</text></g><!--entity Admin--><g class="entity" data-entity="Admin" data-source-line="3" data-uid="ent0002" id="entity_Admin"><ellipse cx="33.7847" cy="446.8969" fill="#F1F1F1" rx="8" ry="8" style="stroke:#181818;stroke-width:0.5;"/><path d="M33.7847,454.8969 L33.7847,481.8969 M20.7847,462.8969 L46.7847,462.8969 M33.7847,481.8969 L20.7847,496.8969 M33.7847,481.8969 L46.7847,496.8969" fill="none" style="stroke:#181818;stroke-width:0.5;"/><text fill="#000000" font-family="sans-serif" font-size="14" lengthAdjust="spacing" textLength="55.5693" x="6" y="511.392">Y&#246;netici</text></g><!--link App to MobileDevice--><g class="link" data-entity-1="App" data-entity-2="MobileDevice" data-source-line="29" data-uid="lnk18" id="link_App_MobileDevice"><path d="M1346.78,133.9769 C1346.78,183.5469 1346.78,295.1069 1346.78,299.1469" fill="none" id="App-to-MobileDevice" style="stroke:#181818;stroke-width:1;"/><polygon fill="none" points="1346.78,317.1469,1352.78,299.1469,1340.78,299.1469,1346.78,317.1469" style="stroke:#181818;stroke-width:1;"/><text fill="#000000" font-family="sans-serif" font-size="13" lengthAdjust="spacing" textLength="59.668" x="1347.78" y="179.6638">&#171;deploy&#187;</text></g><!--link LocalARAssets to MobileDevice--><g class="link" data-entity-1="LocalARAssets" data-entity-2="MobileDevice" data-source-line="30" data-uid="lnk19" id="link_LocalARAssets_MobileDevice"><path d="M1517.1,133.9769 C1471.03,183.5469 1362.8931,299.9305 1359.1331,303.9705" fill="none" id="LocalARAssets-to-MobileDevice" style="stroke:#181818;stroke-width:1;"/><polygon fill="none" points="1346.87,317.1469,1363.5252,308.0582,1354.741,299.8828,1346.87,317.1469" style="stroke:#181818;stroke-width:1;"/><text fill="#000000" font-family="sans-serif" font-size="13" lengthAdjust="spacing" textLength="59.668" x="1484.78" y="179.6638">&#171;deploy&#187;</text></g><!--link LocalData to MobileDevice--><g class="link" data-entity-1="LocalData" data-entity-2="MobileDevice" data-source-line="31" data-uid="lnk20" id="link_LocalData_MobileDevice"><path d="M1702.33,136.9869 C1599.72,189.0069 1366.7948,307.1575 1362.9048,309.1175" fill="none" id="LocalData-to-MobileDevice" style="stroke:#181818;stroke-width:1;"/><polygon fill="none" points="1346.83,317.2169,1365.6046,314.4758,1360.205,303.7592,1346.83,317.2169" style="stroke:#181818;stroke-width:1;"/><text fill="#000000" font-family="sans-serif" font-size="13" lengthAdjust="spacing" textLength="59.668" x="1638.78" y="179.6638">&#171;deploy&#187;</text></g><!--link APIService to APIServer--><g class="link" data-entity-1="APIService" data-entity-2="APIServer" data-source-line="33" data-uid="lnk21" id="link_APIService_APIServer"><path d="M224.99,338.0969 C242.79,379.0169 276.3585,456.0299 277.6185,458.9499" fill="none" id="APIService-to-APIServer" style="stroke:#181818;stroke-width:1;"/><polygon fill="none" points="284.75,475.4769,283.1275,456.5727,272.1095,461.3271,284.75,475.4769" style="stroke:#181818;stroke-width:1;"/><text fill="#000000" font-family="sans-serif" font-size="13" lengthAdjust="spacing" textLength="59.668" x="244.78" y="380.9638">&#171;deploy&#187;</text></g><!--link MainDB to DBServer--><g class="link" data-entity-1="MainDB" data-entity-2="DBServer" data-source-line="34" data-uid="lnk22" id="link_MainDB_DBServer"><path d="M419.78,679.2269 C419.78,707.3869 419.78,735.0269 419.78,737.8469" fill="none" id="MainDB-to-DBServer" style="stroke:#181818;stroke-width:1;"/><polygon fill="none" points="419.78,755.8469,425.78,737.8469,413.78,737.8469,419.78,755.8469" style="stroke:#181818;stroke-width:1;"/><text fill="#000000" font-family="sans-serif" font-size="13" lengthAdjust="spacing" textLength="59.668" x="420.78" y="722.0538">&#171;deploy&#187;</text></g><!--link RemoteARAssets to CDN--><g class="link" data-entity-1="RemoteARAssets" data-entity-2="CDN" data-source-line="35" data-uid="lnk23" id="link_RemoteARAssets_CDN"><path d="M610.78,338.0969 C610.78,379.0169 610.78,454.5569 610.78,457.4769" fill="none" id="RemoteARAssets-to-CDN" style="stroke:#181818;stroke-width:1;"/><polygon fill="none" points="610.78,475.4769,616.78,457.4769,604.78,457.4769,610.78,475.4769" style="stroke:#181818;stroke-width:1;"/><text fill="#000000" font-family="sans-serif" font-size="13" lengthAdjust="spacing" textLength="59.668" x="611.78" y="380.9638">&#171;deploy&#187;</text></g><!--link MediaContent to CDN--><g class="link" data-entity-1="MediaContent" data-entity-2="CDN" data-source-line="36" data-uid="lnk24" id="link_MediaContent_CDN"><path d="M449.86,338.0969 C497.77,379.0169 593.6177,460.8492 597.0277,463.7692" fill="none" id="MediaContent-to-CDN" style="stroke:#181818;stroke-width:1;"/><polygon fill="none" points="610.7,475.4769,600.9303,459.2118,593.1252,468.3267,610.7,475.4769" style="stroke:#181818;stroke-width:1;"/><text fill="#000000" font-family="sans-serif" font-size="13" lengthAdjust="spacing" textLength="59.668" x="503.78" y="380.9638">&#171;deploy&#187;</text></g><!--link AdminUI to AdminWebServer--><g class="link" data-entity-1="AdminUI" data-entity-2="AdminWebServer" data-source-line="37" data-uid="lnk25" id="link_AdminUI_AdminWebServer"><path d="M1061.42,496.5669 C1008.34,541.7169 892.6174,640.1603 888.5874,643.5903" fill="none" id="AdminUI-to-AdminWebServer" style="stroke:#181818;stroke-width:1;"/><polygon fill="none" points="874.88,655.2569,892.4762,648.1594,884.6985,639.0212,874.88,655.2569" style="stroke:#181818;stroke-width:1;"/><text fill="#000000" font-family="sans-serif" font-size="13" lengthAdjust="spacing" textLength="59.668" x="1004.78" y="557.7538">&#171;deploy&#187;</text></g><!--link AdminBackend to AdminWebServer--><g class="link" data-entity-1="AdminBackend" data-entity-2="AdminWebServer" data-source-line="38" data-uid="lnk26" id="link_AdminBackend_AdminWebServer"><path d="M874.78,496.5669 C874.78,541.7169 874.78,633.8269 874.78,637.2569" fill="none" id="AdminBackend-to-AdminWebServer" style="stroke:#181818;stroke-width:1;"/><polygon fill="none" points="874.78,655.2569,880.78,637.2569,868.78,637.2569,874.78,655.2569" style="stroke:#181818;stroke-width:1;"/><text fill="#000000" font-family="sans-serif" font-size="13" lengthAdjust="spacing" textLength="59.668" x="875.78" y="557.7538">&#171;deploy&#187;</text></g><!--link MobileDevice to APIServer--><g class="link" data-entity-1="MobileDevice" data-entity-2="APIServer" data-source-line="41" data-uid="lnk27" id="link_MobileDevice_APIServer"><path d="M1290.6724,326.7225 C1290.1108,326.7955 1289.5454,326.8689 1288.9764,326.9428 C1287.8384,327.0905 1286.6858,327.24 1285.5186,327.3911 C1248.1691,332.2272 1195.9819,338.7863 1135.2912,345.8631 C1013.91,360.0169 858.515,376.2419 719.78,384.8969 C708.83,385.5769 334.02,386.9669 324.78,392.8969 C316.3275,398.3169 309.6131,406.0744 304.2933,414.6906 C301.6334,418.9988 299.3221,423.5216 297.3165,428.0742 C296.3137,430.3505 295.3873,432.6343 294.532,434.9025 C294.1043,436.0366 293.6944,437.1667 293.3016,438.2901 C293.2034,438.5709 293.1062,438.8513 293.0102,439.1313 C292.9621,439.2712 294.8458,433.7305 294.7983,433.8702" fill="none" id="MobileDevice-to-APIServer" style="stroke:#181818;stroke-width:1;"/><polygon fill="#181818" points="292.8668,439.5508,299.5511,432.3176,294.4764,434.817,291.977,429.7423,292.8668,439.5508" style="stroke:#181818;stroke-width:1;"/><text fill="#000000" font-family="sans-serif" font-size="13" lengthAdjust="spacing" textLength="66.6948" x="927.78" y="380.9638">HTTPS/API</text></g><!--link MobileDevice to CDN--><g class="link" data-entity-1="MobileDevice" data-entity-2="CDN" data-source-line="42" data-uid="lnk28" id="link_MobileDevice_CDN"><path d="M1323.5746,326.785 C1323.342,326.8585 1323.1079,326.9325 1322.8723,327.0069 C1321.9297,327.3044 1320.9627,327.6088 1319.9719,327.9198 C1304.1181,332.8959 1282.1575,339.5562 1256.6225,346.6681 C1205.5525,360.8919 1140.185,376.9219 1080.78,384.8969 C1045.42,389.6369 794.21,383.5269 759.78,392.8969 C750.79,395.3431 741.7566,398.4386 732.8265,401.9865 C728.3614,403.7604 723.9222,405.6475 719.5272,407.623 C717.3297,408.6108 715.1433,409.6207 712.9702,410.6497 C712.6985,410.7783 717.8438,408.3267 717.5726,408.4559" fill="none" id="MobileDevice-to-CDN" style="stroke:#181818;stroke-width:1;"/><polygon fill="#181818" points="712.1559,411.0364,722.0013,410.7768,716.6698,408.886,718.5606,403.5545,712.1559,411.0364" style="stroke:#181818;stroke-width:1;"/><text fill="#000000" font-family="sans-serif" font-size="13" lengthAdjust="spacing" textLength="97.8301" x="1169.78" y="380.9638">HTTPS/Content</text></g><!--link APIServer to MainDB--><g class="link" data-entity-1="APIServer" data-entity-2="MainDB" data-source-line="43" data-uid="lnk29" id="link_APIServer_MainDB"><path d="M290.4278,484.9745 C290.7766,485.4339 291.1399,485.9125 291.5174,486.4096 C292.2722,487.4039 293.0834,488.4723 293.9471,489.61 C295.6747,491.8855 297.6128,494.4382 299.7319,497.2292 C308.2081,508.3934 319.58,523.3713 331.9575,539.6731 C356.7125,572.2769 381.8612,605.3986 399.5412,628.6786" fill="none" id="APIServer-to-MainDB" style="stroke:#181818;stroke-width:1;"/><polygon fill="#181818" points="403.17,633.4569,400.9122,623.8703,400.146,629.475,394.5413,628.7087,403.17,633.4569" style="stroke:#181818;stroke-width:1;"/><text fill="#000000" font-family="sans-serif" font-size="13" lengthAdjust="spacing" textLength="40.9106" x="348.78" y="557.7538">TCP/IP</text></g><!--link AdminBackend to MainDB--><g class="link" data-entity-1="AdminBackend" data-entity-2="MainDB" data-source-line="44" data-uid="lnk30" id="link_AdminBackend_MainDB"><path d="M801.37,496.6269 C775.68,502.9169 746.56,509.5869 719.78,514.6869 C626.74,532.4169 591.11,497.8469 508.78,544.6869 C472.36,565.4169 447.9493,602.1484 433.7293,628.0284" fill="none" id="AdminBackend-to-MainDB" style="stroke:#181818;stroke-width:1;"/><polygon fill="#181818" points="430.84,633.2869,438.6797,627.3253,433.2478,628.9048,431.6683,623.4729,430.84,633.2869" style="stroke:#181818;stroke-width:1;"/><text fill="#000000" font-family="sans-serif" font-size="13" lengthAdjust="spacing" textLength="233.0669" x="509.78" y="557.7538">TCP/IP ' Admin backend DB'ye eri&#351;ir</text></g><!--link Admin to AdminWebServer--><g class="link" data-entity-1="Admin" data-entity-2="AdminWebServer" data-source-line="45" data-uid="lnk31" id="link_Admin_AdminWebServer"><path d="M61.81,494.8969 C73.79,501.7769 88.14,509.3069 101.78,514.6869 C179.9,545.4969 201.63,549.9869 284.78,561.6869 C409.38,579.2269 443.37,550.8669 567.78,569.6869 C602.25,574.9019 638.3469,582.7375 673.1823,591.588 C690.6001,596.0132 707.7025,600.6921 724.1285,605.4241 C732.3415,607.79 740.3854,610.1693 748.215,612.5366 C749.1937,612.8326 744.4286,611.383 745.4005,611.6785" fill="none" id="Admin-to-AdminWebServer" style="stroke:#181818;stroke-width:1;"/><polygon fill="#181818" points="751.141,613.4238,743.6938,606.9788,746.3572,611.9693,741.3667,614.6328,751.141,613.4238" style="stroke:#181818;stroke-width:1;"/><text fill="#000000" font-family="sans-serif" font-size="13" lengthAdjust="spacing" textLength="41.7485" x="285.78" y="557.7538">HTTPS</text></g><!--SRC=[ZPI_Rjj03CPtFGNX9VPW1EWO105aQuZHf5NjE457Mc9SmgTJS3e7aDkyHjUCNUEbKpOxxrNgJogTrIBnu8DEF_8-aj_9ibK4mUvPvmWVyUMHRnc64D2TIlE4j8M0SrmQJFPRw4_fdZS47mQUXv5D3NpT_TPaEMB03FmuOUrvEeq9UfVfWXMC-HjkeC-VPyU-ZatAyQ1NeELR2YHTHF3T0q1Z-LPoGkz0YtztLqR8wc0NwGeL-5EuHgFssvL2iz-Mv4KQeVAdVfQHpIGcHeiBpEWrvfeC5pkwg6ZsvO8j3Ph0G6ZlmVCYbQvZw8tB9LHeRrEJG7_tq-WJy6zc4bBe1gZAzSC9pDPw7QspTQKtdCp8t9EfiUBNg2znUSqPjsdfHWa_j3AtvJed1AFE0KsfytovLfYWMssOPdPfI8gknu2iWr7do77mgNmjQojvI_vyWwj_zdvAIMgfrVnEw2N5Cjtzq-wN25if-QkKKCmuJhKLotNqbCQ26reSjBZObjrE6rh7DGODKPDYc4-QsFdaNI4ZZ5QauoQktgXrYbcEsXU65RyyhhWe3Vhdg9SCEMxsM-bK0feCvGJvxbbgrsm6dXWRXiCVP-wTE87JqxZCUNRcEOv-5rou-2tGQqnNeOrb7QuoIONyzPn3k5EloC8xRfhMXF-3r4EfrRZJxOBr5DwcPJpx9oKZbIzAuevd9ElB8sbv4WTW9fU4Nyc1v_HkE7GxT7vr5SfNBPnqiQgm2dZrT1DQ47LFJ-1g71vFmiE2EW0SLHN2ecQ2qP7OI6eGfQOAhnGUzg5KyGS0]--></g></svg>