<svg xmlns="http://www.w3.org/2000/svg" xmlns:xlink="http://www.w3.org/1999/xlink" contentStyleType="text/css" data-diagram-type="SEQUENCE" height="609px" preserveAspectRatio="none" style="width:1373px;height:609px;background:#FFFFFF;" version="1.1" viewBox="0 0 1373 609" width="1373px" zoomAndPan="magnify"><title>D&#252;nya Ka&#351;ifi - Sekans Diyagram&#305;: AR Yap&#305; G&#246;r&#252;nt&#252;leme</title><defs/><g><text fill="#000000" font-family="sans-serif" font-size="14" font-weight="bold" lengthAdjust="spacing" textLength="436.3652" x="467.7715" y="27.9951">D&#252;nya Ka&#351;ifi - Sekans Diyagram&#305;: AR Yap&#305; G&#246;r&#252;nt&#252;leme</text><g><title>&#199;ocuk</title><rect fill="#FFFFFF" height="233.0625" style="stroke:#FFFFFF;stroke-width:1;" width="10" x="24.5093" y="128.5938"/><line style="stroke:#181818;stroke-width:1;" x1="24.5093" x2="24.5093" y1="128.5938" y2="361.6563"/><line style="stroke:#181818;stroke-width:1;" x1="34.5093" x2="34.5093" y1="128.5938" y2="361.6563"/><line style="stroke:#181818;stroke-width:1;" x1="24.5093" x2="34.5093" y1="128.5938" y2="128.5938"/></g><g><title>&#199;ocuk</title><rect fill="#FFFFFF" height="108.5313" style="stroke:#FFFFFF;stroke-width:1;" width="10" x="24.5093" y="402.4609"/><line style="stroke:#181818;stroke-width:1;" x1="24.5093" x2="24.5093" y1="402.4609" y2="510.9922"/><line style="stroke:#181818;stroke-width:1;" x1="34.5093" x2="34.5093" y1="402.4609" y2="510.9922"/><line style="stroke:#181818;stroke-width:1;" x1="24.5093" x2="34.5093" y1="510.9922" y2="510.9922"/></g><g><title>G&#246;rev UI</title><rect fill="#FFFFFF" height="211.9297" style="stroke:#FFFFFF;stroke-width:1;" width="10" x="324.7764" y="149.7266"/><line style="stroke:#181818;stroke-width:1;" x1="324.7764" x2="324.7764" y1="149.7266" y2="361.6563"/><line style="stroke:#181818;stroke-width:1;" x1="334.7764" x2="334.7764" y1="149.7266" y2="361.6563"/><line style="stroke:#181818;stroke-width:1;" x1="324.7764" x2="334.7764" y1="149.7266" y2="149.7266"/></g><g><title>G&#246;rev UI</title><rect fill="#FFFFFF" height="108.5313" style="stroke:#FFFFFF;stroke-width:1;" width="10" x="324.7764" y="402.4609"/><line style="stroke:#181818;stroke-width:1;" x1="324.7764" x2="324.7764" y1="402.4609" y2="510.9922"/><line style="stroke:#181818;stroke-width:1;" x1="334.7764" x2="334.7764" y1="402.4609" y2="510.9922"/><line style="stroke:#181818;stroke-width:1;" x1="324.7764" x2="334.7764" y1="510.9922" y2="510.9922"/></g><g><title>G&#246;rev UI</title><rect fill="#FFFFFF" height="211.9297" style="stroke:#FFFFFF;stroke-width:1;" width="10" x="329.7764" y="149.7266"/><line style="stroke:#181818;stroke-width:1;" x1="329.7764" x2="329.7764" y1="149.7266" y2="361.6563"/><line style="stroke:#181818;stroke-width:1;" x1="339.7764" x2="339.7764" y1="149.7266" y2="361.6563"/><line style="stroke:#181818;stroke-width:1;" x1="329.7764" x2="339.7764" y1="149.7266" y2="149.7266"/></g><g><title>G&#246;rev UI</title><rect fill="#FFFFFF" height="108.5313" style="stroke:#FFFFFF;stroke-width:1;" width="10" x="329.7764" y="402.4609"/><line style="stroke:#181818;stroke-width:1;" x1="329.7764" x2="329.7764" y1="402.4609" y2="510.9922"/><line style="stroke:#181818;stroke-width:1;" x1="339.7764" x2="339.7764" y1="402.4609" y2="510.9922"/><line style="stroke:#181818;stroke-width:1;" x1="329.7764" x2="339.7764" y1="510.9922" y2="510.9922"/></g><g><title>Oyun Y&#246;n.</title><rect fill="#FFFFFF" height="182.7969" style="stroke:#FFFFFF;stroke-width:1;" width="10" x="546.0513" y="178.8594"/><line style="stroke:#181818;stroke-width:1;" x1="546.0513" x2="546.0513" y1="178.8594" y2="361.6563"/><line style="stroke:#181818;stroke-width:1;" x1="556.0513" x2="556.0513" y1="178.8594" y2="361.6563"/><line style="stroke:#181818;stroke-width:1;" x1="546.0513" x2="556.0513" y1="178.8594" y2="178.8594"/></g><g><title>Oyun Y&#246;n.</title><rect fill="#FFFFFF" height="79.3984" style="stroke:#FFFFFF;stroke-width:1;" width="10" x="546.0513" y="402.4609"/><line style="stroke:#181818;stroke-width:1;" x1="546.0513" x2="546.0513" y1="402.4609" y2="481.8594"/><line style="stroke:#181818;stroke-width:1;" x1="556.0513" x2="556.0513" y1="402.4609" y2="481.8594"/><line style="stroke:#181818;stroke-width:1;" x1="546.0513" x2="556.0513" y1="481.8594" y2="481.8594"/></g><g><title>Oyun Y&#246;n.</title><rect fill="#FFFFFF" height="182.7969" style="stroke:#FFFFFF;stroke-width:1;" width="10" x="551.0513" y="178.8594"/><line style="stroke:#181818;stroke-width:1;" x1="551.0513" x2="551.0513" y1="178.8594" y2="361.6563"/><line style="stroke:#181818;stroke-width:1;" x1="561.0513" x2="561.0513" y1="178.8594" y2="361.6563"/><line style="stroke:#181818;stroke-width:1;" x1="551.0513" x2="561.0513" y1="178.8594" y2="178.8594"/></g><g><title>Oyun Y&#246;n.</title><rect fill="#FFFFFF" height="79.3984" style="stroke:#FFFFFF;stroke-width:1;" width="10" x="551.0513" y="402.4609"/><line style="stroke:#181818;stroke-width:1;" x1="551.0513" x2="551.0513" y1="402.4609" y2="481.8594"/><line style="stroke:#181818;stroke-width:1;" x1="561.0513" x2="561.0513" y1="402.4609" y2="481.8594"/><line style="stroke:#181818;stroke-width:1;" x1="551.0513" x2="561.0513" y1="481.8594" y2="481.8594"/></g><g><title>AR Servisi</title><rect fill="#FFFFFF" height="95.3984" style="stroke:#FFFFFF;stroke-width:1;" width="10" x="797.9092" y="266.2578"/><line style="stroke:#181818;stroke-width:1;" x1="797.9092" x2="797.9092" y1="266.2578" y2="361.6563"/><line style="stroke:#181818;stroke-width:1;" x1="807.9092" x2="807.9092" y1="266.2578" y2="361.6563"/><line style="stroke:#181818;stroke-width:1;" x1="797.9092" x2="807.9092" y1="266.2578" y2="266.2578"/></g><g><title>AR Servisi</title><rect fill="#FFFFFF" height="50.2656" style="stroke:#FFFFFF;stroke-width:1;" width="10" x="797.9092" y="402.4609"/><line style="stroke:#181818;stroke-width:1;" x1="797.9092" x2="797.9092" y1="402.4609" y2="452.7266"/><line style="stroke:#181818;stroke-width:1;" x1="807.9092" x2="807.9092" y1="402.4609" y2="452.7266"/><line style="stroke:#181818;stroke-width:1;" x1="797.9092" x2="807.9092" y1="452.7266" y2="452.7266"/></g><g><title>AR Servisi</title><rect fill="#FFFFFF" height="95.3984" style="stroke:#FFFFFF;stroke-width:1;" width="10" x="802.9092" y="266.2578"/><line style="stroke:#181818;stroke-width:1;" x1="802.9092" x2="802.9092" y1="266.2578" y2="361.6563"/><line style="stroke:#181818;stroke-width:1;" x1="812.9092" x2="812.9092" y1="266.2578" y2="361.6563"/><line style="stroke:#181818;stroke-width:1;" x1="802.9092" x2="812.9092" y1="266.2578" y2="266.2578"/></g><g><title>AR Servisi</title><rect fill="#FFFFFF" height="50.2656" style="stroke:#FFFFFF;stroke-width:1;" width="10" x="802.9092" y="402.4609"/><line style="stroke:#181818;stroke-width:1;" x1="802.9092" x2="802.9092" y1="402.4609" y2="452.7266"/><line style="stroke:#181818;stroke-width:1;" x1="812.9092" x2="812.9092" y1="402.4609" y2="452.7266"/><line style="stroke:#181818;stroke-width:1;" x1="802.9092" x2="812.9092" y1="452.7266" y2="452.7266"/></g><g><title>AR Motoru</title><rect fill="#FFFFFF" height="29.1328" style="stroke:#181818;stroke-width:1;" width="10" x="1222.2837" y="295.3906"/></g><g><title>AR Motoru</title><rect fill="#FFFFFF" height="8" style="stroke:#FFFFFF;stroke-width:1;" width="10" x="1222.2837" y="353.6563"/><line style="stroke:#181818;stroke-width:1;" x1="1222.2837" x2="1222.2837" y1="353.6563" y2="361.6563"/><line style="stroke:#181818;stroke-width:1;" x1="1232.2837" x2="1232.2837" y1="353.6563" y2="361.6563"/><line style="stroke:#181818;stroke-width:1;" x1="1222.2837" x2="1232.2837" y1="353.6563" y2="353.6563"/></g><g><title>AR Motoru</title><rect fill="#FFFFFF" height="21.1328" style="stroke:#FFFFFF;stroke-width:1;" width="10" x="1222.2837" y="402.4609"/><line style="stroke:#181818;stroke-width:1;" x1="1222.2837" x2="1222.2837" y1="402.4609" y2="423.5938"/><line style="stroke:#181818;stroke-width:1;" x1="1232.2837" x2="1232.2837" y1="402.4609" y2="423.5938"/><line style="stroke:#181818;stroke-width:1;" x1="1222.2837" x2="1232.2837" y1="423.5938" y2="423.5938"/></g><g><title>&#304;&#231;erik Y&#246;n.</title><rect fill="#FFFFFF" height="29.1328" style="stroke:#181818;stroke-width:1;" width="10" x="1319.3667" y="207.9922"/></g><g><title>&#304;&#231;erik Y&#246;n.</title><rect fill="#FFFFFF" height="29.1328" style="stroke:#181818;stroke-width:1;" width="10" x="1324.3667" y="207.9922"/></g><g><title>&#199;ocuk</title><rect fill="#000000" fill-opacity="0.00000" height="243.0625" width="8" x="25.5093" y="118.5938"/><line style="stroke:#181818;stroke-width:0.5;stroke-dasharray:5.0,5.0;" x1="29" x2="29" y1="118.5938" y2="361.6563"/></g><line style="stroke:#A80036;stroke-width:1;stroke-dasharray:1.0,4.0;" x1="29" x2="29" y1="361.6563" y2="402.4609"/><g><title>&#199;ocuk</title><rect fill="#000000" fill-opacity="0.00000" height="126.5313" width="8" x="25.5093" y="402.4609"/><line style="stroke:#181818;stroke-width:0.5;stroke-dasharray:5.0,5.0;" x1="29" x2="29" y1="402.4609" y2="528.9922"/></g><g><title>G&#246;rev UI</title><rect fill="#000000" fill-opacity="0.00000" height="243.0625" width="8" x="325.7764" y="118.5938"/><line style="stroke:#181818;stroke-width:0.5;stroke-dasharray:5.0,5.0;" x1="329.3291" x2="329.3291" y1="118.5938" y2="361.6563"/></g><line style="stroke:#A80036;stroke-width:1;stroke-dasharray:1.0,4.0;" x1="329.3291" x2="329.3291" y1="361.6563" y2="402.4609"/><g><title>G&#246;rev UI</title><rect fill="#000000" fill-opacity="0.00000" height="126.5313" width="8" x="325.7764" y="402.4609"/><line style="stroke:#181818;stroke-width:0.5;stroke-dasharray:5.0,5.0;" x1="329.3291" x2="329.3291" y1="402.4609" y2="528.9922"/></g><g><title>Oyun Y&#246;n.</title><rect fill="#000000" fill-opacity="0.00000" height="243.0625" width="8" x="547.0513" y="118.5938"/><line style="stroke:#181818;stroke-width:0.5;stroke-dasharray:5.0,5.0;" x1="550.0806" x2="550.0806" y1="118.5938" y2="361.6563"/></g><line style="stroke:#A80036;stroke-width:1;stroke-dasharray:1.0,4.0;" x1="550.0806" x2="550.0806" y1="361.6563" y2="402.4609"/><g><title>Oyun Y&#246;n.</title><rect fill="#000000" fill-opacity="0.00000" height="126.5313" width="8" x="547.0513" y="402.4609"/><line style="stroke:#181818;stroke-width:0.5;stroke-dasharray:5.0,5.0;" x1="550.0806" x2="550.0806" y1="402.4609" y2="528.9922"/></g><g><title>AR Servisi</title><rect fill="#000000" fill-opacity="0.00000" height="243.0625" width="8" x="798.9092" y="118.5938"/><line style="stroke:#181818;stroke-width:0.5;stroke-dasharray:5.0,5.0;" x1="802.7246" x2="802.7246" y1="118.5938" y2="361.6563"/></g><line style="stroke:#A80036;stroke-width:1;stroke-dasharray:1.0,4.0;" x1="802.7246" x2="802.7246" y1="361.6563" y2="402.4609"/><g><title>AR Servisi</title><rect fill="#000000" fill-opacity="0.00000" height="126.5313" width="8" x="798.9092" y="402.4609"/><line style="stroke:#181818;stroke-width:0.5;stroke-dasharray:5.0,5.0;" x1="802.7246" x2="802.7246" y1="402.4609" y2="528.9922"/></g><g><title>AR Motoru</title><rect fill="#000000" fill-opacity="0.00000" height="243.0625" width="8" x="1223.2837" y="118.5938"/><line style="stroke:#181818;stroke-width:0.5;stroke-dasharray:5.0,5.0;" x1="1226.7422" x2="1226.7422" y1="118.5938" y2="361.6563"/></g><line style="stroke:#A80036;stroke-width:1;stroke-dasharray:1.0,4.0;" x1="1226.7422" x2="1226.7422" y1="361.6563" y2="402.4609"/><g><title>AR Motoru</title><rect fill="#000000" fill-opacity="0.00000" height="126.5313" width="8" x="1223.2837" y="402.4609"/><line style="stroke:#181818;stroke-width:0.5;stroke-dasharray:5.0,5.0;" x1="1226.7422" x2="1226.7422" y1="402.4609" y2="528.9922"/></g><g><title>&#304;&#231;erik Y&#246;n.</title><rect fill="#000000" fill-opacity="0.00000" height="243.0625" width="8" x="1320.3667" y="118.5938"/><line style="stroke:#181818;stroke-width:0.5;stroke-dasharray:5.0,5.0;" x1="1323.8252" x2="1323.8252" y1="118.5938" y2="361.6563"/></g><line style="stroke:#A80036;stroke-width:1;stroke-dasharray:1.0,4.0;" x1="1323.8252" x2="1323.8252" y1="361.6563" y2="402.4609"/><g><title>&#304;&#231;erik Y&#246;n.</title><rect fill="#000000" fill-opacity="0.00000" height="126.5313" width="8" x="1320.3667" y="402.4609"/><line style="stroke:#181818;stroke-width:0.5;stroke-dasharray:5.0,5.0;" x1="1323.8252" x2="1323.8252" y1="402.4609" y2="528.9922"/></g><g class="participant participant-head" data-participant="Child"><text fill="#000000" font-family="sans-serif" font-size="14" lengthAdjust="spacing" textLength="43.0186" x="5" y="115.292">&#199;ocuk</text><ellipse cx="29.5093" cy="50.7969" fill="#E2E2F0" rx="8" ry="8" style="stroke:#181818;stroke-width:0.5;"/><path d="M29.5093,58.7969 L29.5093,85.7969 M16.5093,66.7969 L42.5093,66.7969 M29.5093,85.7969 L16.5093,100.7969 M29.5093,85.7969 L42.5093,100.7969" fill="none" style="stroke:#181818;stroke-width:0.5;"/></g><g class="participant participant-tail" data-participant="Child"><text fill="#000000" font-family="sans-serif" font-size="14" lengthAdjust="spacing" textLength="43.0186" x="5" y="540.9873">&#199;ocuk</text><ellipse cx="29.5093" cy="552.7891" fill="#E2E2F0" rx="8" ry="8" style="stroke:#181818;stroke-width:0.5;"/><path d="M29.5093,560.7891 L29.5093,587.7891 M16.5093,568.7891 L42.5093,568.7891 M29.5093,587.7891 L16.5093,602.7891 M29.5093,587.7891 L42.5093,602.7891" fill="none" style="stroke:#181818;stroke-width:0.5;"/></g><g class="participant participant-head" data-participant="TaskUI"><rect fill="#E2E2F0" height="30.2969" rx="2.5" ry="2.5" style="stroke:#181818;stroke-width:0.5;" width="74.8945" x="292.3291" y="87.2969"/><text fill="#000000" font-family="sans-serif" font-size="14" lengthAdjust="spacing" textLength="60.8945" x="299.3291" y="107.292">G&#246;rev UI</text></g><g class="participant participant-tail" data-participant="TaskUI"><rect fill="#E2E2F0" height="30.2969" rx="2.5" ry="2.5" style="stroke:#181818;stroke-width:0.5;" width="74.8945" x="292.3291" y="527.9922"/><text fill="#000000" font-family="sans-serif" font-size="14" lengthAdjust="spacing" textLength="60.8945" x="299.3291" y="547.9873">G&#246;rev UI</text></g><g class="participant participant-head" data-participant="GameMgr"><rect fill="#E2E2F0" height="30.2969" rx="2.5" ry="2.5" style="stroke:#181818;stroke-width:0.5;" width="85.9414" x="508.0806" y="87.2969"/><text fill="#000000" font-family="sans-serif" font-size="14" lengthAdjust="spacing" textLength="71.9414" x="515.0806" y="107.292">Oyun Y&#246;n.</text></g><g class="participant participant-tail" data-participant="GameMgr"><rect fill="#E2E2F0" height="30.2969" rx="2.5" ry="2.5" style="stroke:#181818;stroke-width:0.5;" width="85.9414" x="508.0806" y="527.9922"/><text fill="#000000" font-family="sans-serif" font-size="14" lengthAdjust="spacing" textLength="71.9414" x="515.0806" y="547.9873">Oyun Y&#246;n.</text></g><g class="participant participant-head" data-participant="ARService"><rect fill="#E2E2F0" height="30.2969" rx="2.5" ry="2.5" style="stroke:#181818;stroke-width:0.5;" width="84.3691" x="760.7246" y="87.2969"/><text fill="#000000" font-family="sans-serif" font-size="14" lengthAdjust="spacing" textLength="70.3691" x="767.7246" y="107.292">AR Servisi</text></g><g class="participant participant-tail" data-participant="ARService"><rect fill="#E2E2F0" height="30.2969" rx="2.5" ry="2.5" style="stroke:#181818;stroke-width:0.5;" width="84.3691" x="760.7246" y="527.9922"/><text fill="#000000" font-family="sans-serif" font-size="14" lengthAdjust="spacing" textLength="70.3691" x="767.7246" y="547.9873">AR Servisi</text></g><g class="participant participant-head" data-participant="AREngine"><rect fill="#E2E2F0" height="30.2969" rx="2.5" ry="2.5" style="stroke:#181818;stroke-width:0.5;" width="87.083" x="1183.7422" y="87.2969"/><text fill="#000000" font-family="sans-serif" font-size="14" lengthAdjust="spacing" textLength="73.083" x="1190.7422" y="107.292">AR Motoru</text></g><g class="participant participant-tail" data-participant="AREngine"><rect fill="#E2E2F0" height="30.2969" rx="2.5" ry="2.5" style="stroke:#181818;stroke-width:0.5;" width="87.083" x="1183.7422" y="527.9922"/><text fill="#000000" font-family="sans-serif" font-size="14" lengthAdjust="spacing" textLength="73.083" x="1190.7422" y="547.9873">AR Motoru</text></g><g class="participant participant-head" data-participant="ContentMgr"><rect fill="#E2E2F0" height="30.2969" rx="2.5" ry="2.5" style="stroke:#181818;stroke-width:0.5;" width="87.083" x="1280.8252" y="87.2969"/><text fill="#000000" font-family="sans-serif" font-size="14" lengthAdjust="spacing" textLength="73.083" x="1287.8252" y="107.292">&#304;&#231;erik Y&#246;n.</text></g><g class="participant participant-tail" data-participant="ContentMgr"><rect fill="#E2E2F0" height="30.2969" rx="2.5" ry="2.5" style="stroke:#181818;stroke-width:0.5;" width="87.083" x="1280.8252" y="527.9922"/><text fill="#000000" font-family="sans-serif" font-size="14" lengthAdjust="spacing" textLength="73.083" x="1287.8252" y="547.9873">&#304;&#231;erik Y&#246;n.</text></g><g><title>&#199;ocuk</title><rect fill="#FFFFFF" height="233.0625" style="stroke:#FFFFFF;stroke-width:1;" width="10" x="24.5093" y="128.5938"/><line style="stroke:#181818;stroke-width:1;" x1="24.5093" x2="24.5093" y1="128.5938" y2="361.6563"/><line style="stroke:#181818;stroke-width:1;" x1="34.5093" x2="34.5093" y1="128.5938" y2="361.6563"/><line style="stroke:#181818;stroke-width:1;" x1="24.5093" x2="34.5093" y1="128.5938" y2="128.5938"/></g><g><title>&#199;ocuk</title><rect fill="#FFFFFF" height="108.5313" style="stroke:#FFFFFF;stroke-width:1;" width="10" x="24.5093" y="402.4609"/><line style="stroke:#181818;stroke-width:1;" x1="24.5093" x2="24.5093" y1="402.4609" y2="510.9922"/><line style="stroke:#181818;stroke-width:1;" x1="34.5093" x2="34.5093" y1="402.4609" y2="510.9922"/><line style="stroke:#181818;stroke-width:1;" x1="24.5093" x2="34.5093" y1="510.9922" y2="510.9922"/></g><g><title>G&#246;rev UI</title><rect fill="#FFFFFF" height="211.9297" style="stroke:#FFFFFF;stroke-width:1;" width="10" x="324.7764" y="149.7266"/><line style="stroke:#181818;stroke-width:1;" x1="324.7764" x2="324.7764" y1="149.7266" y2="361.6563"/><line style="stroke:#181818;stroke-width:1;" x1="334.7764" x2="334.7764" y1="149.7266" y2="361.6563"/><line style="stroke:#181818;stroke-width:1;" x1="324.7764" x2="334.7764" y1="149.7266" y2="149.7266"/></g><g><title>G&#246;rev UI</title><rect fill="#FFFFFF" height="108.5313" style="stroke:#FFFFFF;stroke-width:1;" width="10" x="324.7764" y="402.4609"/><line style="stroke:#181818;stroke-width:1;" x1="324.7764" x2="324.7764" y1="402.4609" y2="510.9922"/><line style="stroke:#181818;stroke-width:1;" x1="334.7764" x2="334.7764" y1="402.4609" y2="510.9922"/><line style="stroke:#181818;stroke-width:1;" x1="324.7764" x2="334.7764" y1="510.9922" y2="510.9922"/></g><g><title>G&#246;rev UI</title><rect fill="#FFFFFF" height="211.9297" style="stroke:#FFFFFF;stroke-width:1;" width="10" x="329.7764" y="149.7266"/><line style="stroke:#181818;stroke-width:1;" x1="329.7764" x2="329.7764" y1="149.7266" y2="361.6563"/><line style="stroke:#181818;stroke-width:1;" x1="339.7764" x2="339.7764" y1="149.7266" y2="361.6563"/><line style="stroke:#181818;stroke-width:1;" x1="329.7764" x2="339.7764" y1="149.7266" y2="149.7266"/></g><g><title>G&#246;rev UI</title><rect fill="#FFFFFF" height="108.5313" style="stroke:#FFFFFF;stroke-width:1;" width="10" x="329.7764" y="402.4609"/><line style="stroke:#181818;stroke-width:1;" x1="329.7764" x2="329.7764" y1="402.4609" y2="510.9922"/><line style="stroke:#181818;stroke-width:1;" x1="339.7764" x2="339.7764" y1="402.4609" y2="510.9922"/><line style="stroke:#181818;stroke-width:1;" x1="329.7764" x2="339.7764" y1="510.9922" y2="510.9922"/></g><g><title>Oyun Y&#246;n.</title><rect fill="#FFFFFF" height="182.7969" style="stroke:#FFFFFF;stroke-width:1;" width="10" x="546.0513" y="178.8594"/><line style="stroke:#181818;stroke-width:1;" x1="546.0513" x2="546.0513" y1="178.8594" y2="361.6563"/><line style="stroke:#181818;stroke-width:1;" x1="556.0513" x2="556.0513" y1="178.8594" y2="361.6563"/><line style="stroke:#181818;stroke-width:1;" x1="546.0513" x2="556.0513" y1="178.8594" y2="178.8594"/></g><g><title>Oyun Y&#246;n.</title><rect fill="#FFFFFF" height="79.3984" style="stroke:#FFFFFF;stroke-width:1;" width="10" x="546.0513" y="402.4609"/><line style="stroke:#181818;stroke-width:1;" x1="546.0513" x2="546.0513" y1="402.4609" y2="481.8594"/><line style="stroke:#181818;stroke-width:1;" x1="556.0513" x2="556.0513" y1="402.4609" y2="481.8594"/><line style="stroke:#181818;stroke-width:1;" x1="546.0513" x2="556.0513" y1="481.8594" y2="481.8594"/></g><g><title>Oyun Y&#246;n.</title><rect fill="#FFFFFF" height="182.7969" style="stroke:#FFFFFF;stroke-width:1;" width="10" x="551.0513" y="178.8594"/><line style="stroke:#181818;stroke-width:1;" x1="551.0513" x2="551.0513" y1="178.8594" y2="361.6563"/><line style="stroke:#181818;stroke-width:1;" x1="561.0513" x2="561.0513" y1="178.8594" y2="361.6563"/><line style="stroke:#181818;stroke-width:1;" x1="551.0513" x2="561.0513" y1="178.8594" y2="178.8594"/></g><g><title>Oyun Y&#246;n.</title><rect fill="#FFFFFF" height="79.3984" style="stroke:#FFFFFF;stroke-width:1;" width="10" x="551.0513" y="402.4609"/><line style="stroke:#181818;stroke-width:1;" x1="551.0513" x2="551.0513" y1="402.4609" y2="481.8594"/><line style="stroke:#181818;stroke-width:1;" x1="561.0513" x2="561.0513" y1="402.4609" y2="481.8594"/><line style="stroke:#181818;stroke-width:1;" x1="551.0513" x2="561.0513" y1="481.8594" y2="481.8594"/></g><g><title>AR Servisi</title><rect fill="#FFFFFF" height="95.3984" style="stroke:#FFFFFF;stroke-width:1;" width="10" x="797.9092" y="266.2578"/><line style="stroke:#181818;stroke-width:1;" x1="797.9092" x2="797.9092" y1="266.2578" y2="361.6563"/><line style="stroke:#181818;stroke-width:1;" x1="807.9092" x2="807.9092" y1="266.2578" y2="361.6563"/><line style="stroke:#181818;stroke-width:1;" x1="797.9092" x2="807.9092" y1="266.2578" y2="266.2578"/></g><g><title>AR Servisi</title><rect fill="#FFFFFF" height="50.2656" style="stroke:#FFFFFF;stroke-width:1;" width="10" x="797.9092" y="402.4609"/><line style="stroke:#181818;stroke-width:1;" x1="797.9092" x2="797.9092" y1="402.4609" y2="452.7266"/><line style="stroke:#181818;stroke-width:1;" x1="807.9092" x2="807.9092" y1="402.4609" y2="452.7266"/><line style="stroke:#181818;stroke-width:1;" x1="797.9092" x2="807.9092" y1="452.7266" y2="452.7266"/></g><g><title>AR Servisi</title><rect fill="#FFFFFF" height="95.3984" style="stroke:#FFFFFF;stroke-width:1;" width="10" x="802.9092" y="266.2578"/><line style="stroke:#181818;stroke-width:1;" x1="802.9092" x2="802.9092" y1="266.2578" y2="361.6563"/><line style="stroke:#181818;stroke-width:1;" x1="812.9092" x2="812.9092" y1="266.2578" y2="361.6563"/><line style="stroke:#181818;stroke-width:1;" x1="802.9092" x2="812.9092" y1="266.2578" y2="266.2578"/></g><g><title>AR Servisi</title><rect fill="#FFFFFF" height="50.2656" style="stroke:#FFFFFF;stroke-width:1;" width="10" x="802.9092" y="402.4609"/><line style="stroke:#181818;stroke-width:1;" x1="802.9092" x2="802.9092" y1="402.4609" y2="452.7266"/><line style="stroke:#181818;stroke-width:1;" x1="812.9092" x2="812.9092" y1="402.4609" y2="452.7266"/><line style="stroke:#181818;stroke-width:1;" x1="802.9092" x2="812.9092" y1="452.7266" y2="452.7266"/></g><g><title>AR Motoru</title><rect fill="#FFFFFF" height="29.1328" style="stroke:#181818;stroke-width:1;" width="10" x="1222.2837" y="295.3906"/></g><g><title>AR Motoru</title><rect fill="#FFFFFF" height="8" style="stroke:#FFFFFF;stroke-width:1;" width="10" x="1222.2837" y="353.6563"/><line style="stroke:#181818;stroke-width:1;" x1="1222.2837" x2="1222.2837" y1="353.6563" y2="361.6563"/><line style="stroke:#181818;stroke-width:1;" x1="1232.2837" x2="1232.2837" y1="353.6563" y2="361.6563"/><line style="stroke:#181818;stroke-width:1;" x1="1222.2837" x2="1232.2837" y1="353.6563" y2="353.6563"/></g><g><title>AR Motoru</title><rect fill="#FFFFFF" height="21.1328" style="stroke:#FFFFFF;stroke-width:1;" width="10" x="1222.2837" y="402.4609"/><line style="stroke:#181818;stroke-width:1;" x1="1222.2837" x2="1222.2837" y1="402.4609" y2="423.5938"/><line style="stroke:#181818;stroke-width:1;" x1="1232.2837" x2="1232.2837" y1="402.4609" y2="423.5938"/><line style="stroke:#181818;stroke-width:1;" x1="1222.2837" x2="1232.2837" y1="423.5938" y2="423.5938"/></g><g><title>&#304;&#231;erik Y&#246;n.</title><rect fill="#FFFFFF" height="29.1328" style="stroke:#181818;stroke-width:1;" width="10" x="1319.3667" y="207.9922"/></g><g><title>&#304;&#231;erik Y&#246;n.</title><rect fill="#FFFFFF" height="29.1328" style="stroke:#181818;stroke-width:1;" width="10" x="1324.3667" y="207.9922"/></g><g class="message" data-participant-1="Child" data-participant-2="TaskUI"><polygon fill="#181818" points="317.7764,145.7266,327.7764,149.7266,317.7764,153.7266,321.7764,149.7266" style="stroke:#181818;stroke-width:1;"/><line style="stroke:#181818;stroke-width:1;" x1="34.5093" x2="323.7764" y1="149.7266" y2="149.7266"/><text fill="#000000" font-family="sans-serif" font-size="13" lengthAdjust="spacing" textLength="271.2671" x="41.5093" y="144.6606">Yap&#305;y&#305; AR'de G&#246;r Butonuna T&#305;klar (yapiID)</text></g><g class="message" data-participant-1="TaskUI" data-participant-2="GameMgr"><polygon fill="#181818" points="539.0513,174.8594,549.0513,178.8594,539.0513,182.8594,543.0513,178.8594" style="stroke:#181818;stroke-width:1;"/><line style="stroke:#181818;stroke-width:1;" x1="339.7764" x2="545.0513" y1="178.8594" y2="178.8594"/><text fill="#000000" font-family="sans-serif" font-size="13" lengthAdjust="spacing" textLength="187.2749" x="346.7764" y="173.7935">ARModelGosterIstegi(yapiID)</text></g><g class="message" data-participant-1="GameMgr" data-participant-2="ContentMgr"><polygon fill="#181818" points="1312.3667,203.9922,1322.3667,207.9922,1312.3667,211.9922,1316.3667,207.9922" style="stroke:#181818;stroke-width:1;"/><line style="stroke:#181818;stroke-width:1;" x1="561.0513" x2="1318.3667" y1="207.9922" y2="207.9922"/><text fill="#000000" font-family="sans-serif" font-size="13" lengthAdjust="spacing" textLength="234.8633" x="568.0513" y="202.9263">YapiBilgisiVeModelPathGetir(yapiID)</text></g><g class="message" data-participant-1="ContentMgr" data-participant-2="GameMgr"><polygon fill="#181818" points="572.0513,233.125,562.0513,237.125,572.0513,241.125,568.0513,237.125" style="stroke:#181818;stroke-width:1;"/><line style="stroke:#181818;stroke-width:1;stroke-dasharray:2.0,2.0;" x1="566.0513" x2="1323.3667" y1="237.125" y2="237.125"/><text fill="#000000" font-family="sans-serif" font-size="13" lengthAdjust="spacing" textLength="143.7998" x="578.0513" y="232.0591">yapiBilgisi, modelPath</text></g><g class="message" data-participant-1="GameMgr" data-participant-2="ARService"><polygon fill="#181818" points="790.9092,262.2578,800.9092,266.2578,790.9092,270.2578,794.9092,266.2578" style="stroke:#181818;stroke-width:1;"/><line style="stroke:#181818;stroke-width:1;" x1="561.0513" x2="796.9092" y1="266.2578" y2="266.2578"/><text fill="#000000" font-family="sans-serif" font-size="13" lengthAdjust="spacing" textLength="217.8579" x="568.0513" y="261.1919">ModeliYukleVeGoster(modelPath)</text></g><g class="message" data-participant-1="ARService" data-participant-2="AREngine"><polygon fill="#181818" points="1210.2837,291.3906,1220.2837,295.3906,1210.2837,299.3906,1214.2837,295.3906" style="stroke:#181818;stroke-width:1;"/><line style="stroke:#181818;stroke-width:1;" x1="812.9092" x2="1216.2837" y1="295.3906" y2="295.3906"/><text fill="#000000" font-family="sans-serif" font-size="13" lengthAdjust="spacing" textLength="242.1187" x="819.9092" y="290.3247">OturumuBaslat() ' Zaten aktif de&#287;ilse</text></g><g class="message" data-participant-1="AREngine" data-participant-2="ARService"><polygon fill="#181818" points="823.9092,320.5234,813.9092,324.5234,823.9092,328.5234,819.9092,324.5234" style="stroke:#181818;stroke-width:1;"/><line style="stroke:#181818;stroke-width:1;stroke-dasharray:2.0,2.0;" x1="817.9092" x2="1226.2837" y1="324.5234" y2="324.5234"/><text fill="#000000" font-family="sans-serif" font-size="13" lengthAdjust="spacing" textLength="113.3691" x="829.9092" y="319.4575">Oturum Ba&#351;lat&#305;ld&#305;</text></g><g class="message" data-participant-1="ARService" data-participant-2="AREngine"><polygon fill="#181818" points="1210.2837,349.6563,1220.2837,353.6563,1210.2837,357.6563,1214.2837,353.6563" style="stroke:#181818;stroke-width:1;"/><line style="stroke:#181818;stroke-width:1;" x1="812.9092" x2="1216.2837" y1="353.6563" y2="353.6563"/><text fill="#000000" font-family="sans-serif" font-size="13" lengthAdjust="spacing" textLength="390.3745" x="819.9092" y="348.5903">ModeliKonumland&#305;r(modelPath) ' Y&#252;zey alg&#305;lama vb. sonras&#305;</text></g><text fill="#000000" font-family="sans-serif" font-size="11" lengthAdjust="spacing" textLength="108.9097" x="622.4832" y="385.8667">Model Yerle&#351;tiriliyor</text><g class="message" data-participant-1="AREngine" data-participant-2="ARService"><polygon fill="#181818" points="823.9092,419.5938,813.9092,423.5938,823.9092,427.5938,819.9092,423.5938" style="stroke:#181818;stroke-width:1;"/><line style="stroke:#181818;stroke-width:1;stroke-dasharray:2.0,2.0;" x1="817.9092" x2="1226.2837" y1="423.5938" y2="423.5938"/><text fill="#000000" font-family="sans-serif" font-size="13" lengthAdjust="spacing" textLength="227.0303" x="829.9092" y="418.5278">Model Yerle&#351;tirildi (Callback/Event)</text></g><g class="message" data-participant-1="ARService" data-participant-2="GameMgr"><polygon fill="#181818" points="572.0513,448.7266,562.0513,452.7266,572.0513,456.7266,568.0513,452.7266" style="stroke:#181818;stroke-width:1;"/><line style="stroke:#181818;stroke-width:1;stroke-dasharray:2.0,2.0;" x1="566.0513" x2="801.9092" y1="452.7266" y2="452.7266"/><text fill="#000000" font-family="sans-serif" font-size="13" lengthAdjust="spacing" textLength="111.4521" x="578.0513" y="447.6606">G&#246;sterim Ba&#351;ar&#305;l&#305;</text></g><g class="message" data-participant-1="GameMgr" data-participant-2="TaskUI"><polygon fill="#181818" points="350.7764,477.8594,340.7764,481.8594,350.7764,485.8594,346.7764,481.8594" style="stroke:#181818;stroke-width:1;"/><line style="stroke:#181818;stroke-width:1;stroke-dasharray:2.0,2.0;" x1="344.7764" x2="550.0513" y1="481.8594" y2="481.8594"/><text fill="#000000" font-family="sans-serif" font-size="13" lengthAdjust="spacing" textLength="152.7881" x="356.7764" y="476.7935">AR Aray&#252;z&#252;n&#252; G&#252;ncelle</text></g><g class="message" data-participant-1="TaskUI" data-participant-2="Child"><polygon fill="#181818" points="40.5093,506.9922,30.5093,510.9922,40.5093,514.9922,36.5093,510.9922" style="stroke:#181818;stroke-width:1;"/><line style="stroke:#181818;stroke-width:1;stroke-dasharray:2.0,2.0;" x1="34.5093" x2="328.7764" y1="510.9922" y2="510.9922"/><text fill="#000000" font-family="sans-serif" font-size="13" lengthAdjust="spacing" textLength="132.8818" x="46.5093" y="505.9263">AR Modelini G&#246;sterir</text></g><!--SRC=[VPIzRk9G48LxdcAK1b0MjayHYPy8eGXb1KaajXliYJFozJMwlaRoli0-1kMsIvEApkQzTlo3RS8gZINBPxvxPiuTMxQAO9eUTOBmYASzlp4CO4K-wWYcdA1dCCWETp1QmXgtsG5cwOSHlKsFYWBgTD2neO7qT-Z4Fc04atTMRcUBnhB3MzGMRl8Isi7B_2ONF6Falyml5Kz9h66TVkXX8PbXG0lFN6h4mOhCZYCkDADbyURGbMeHYgEu4ZreZ_KdJVOt_KE6_TQ9ar1RqZO_DE-8TsYfQgLumk2-CWwtjt1NpYAHSOoMNPUAeS0ujg6EDS9pTl0L6kWbkENvjDyGgzuhaZ2hJaleQBa8NLApCB9avlBm-1fndisvKY2D-TeSZrbvCgfNAf0_qBxFoBAvvhKwRt46BM-3WJ2JXlaDWZEpuzB_G6rpTKwbjy8EhsDVqIkLdVPgNCjM4sy3A6Xbe2NioSOc3k8nHWfjhmzT-2cr6j2t_0OkPNjMKKweYWONVeg-IWICvUuB8pieDpjyTMJf_r623XHg4RVjYu5rUln52Q3oX8K1mcupX2ZK1YC1Ts75GRuvG2whW4zxs92VBn94wT5Gn9tXS5WU0cioYavxIOqL9x9aykdBNgxBN8RU19NQeED_VzX9FFrsPFLwj46VWfUhdOV4vOpGI5lIo0Nad5GJUxCj1KEMScGmaT78doCz2lEe7LAAsfppnQuBxw5QlGfHZbvpRScqowlLQb_8lFeV]--></g></svg>