<svg xmlns="http://www.w3.org/2000/svg" xmlns:xlink="http://www.w3.org/1999/xlink" contentStyleType="text/css" data-diagram-type="STATE" height="750px" preserveAspectRatio="none" style="width:774px;height:750px;background:#FFFFFF;" version="1.1" viewBox="0 0 774 750" width="774px" zoomAndPan="magnify"><title>D&#252;nya Ka&#351;ifi - Durum Diyagram&#305;: U&#231;u&#351; Nesnesi</title><defs/><g><g class="title" data-source-line="1"><text fill="#000000" font-family="sans-serif" font-size="14" font-weight="bold" lengthAdjust="spacing" textLength="369.0039" x="195.5534" y="22.9951">D&#252;nya Ka&#351;ifi - Durum Diyagram&#305;: U&#231;u&#351; Nesnesi</text></g><g id="Planlandi"><rect fill="#F1F1F1" height="50.2656" rx="12.5" ry="12.5" style="stroke:#181818;stroke-width:0.5;" width="134.4277" x="461.01" y="140.2969"/><line style="stroke:#181818;stroke-width:0.5;" x1="461.01" x2="595.4377" y1="166.5938" y2="166.5938"/><text fill="#000000" font-family="sans-serif" font-size="14" lengthAdjust="spacing" textLength="63.9023" x="496.2727" y="158.292">Planlandi</text><text fill="#000000" font-family="sans-serif" font-size="12" lengthAdjust="spacing" textLength="114.4277" x="466.01" y="182.7324">U&#231;u&#351; bilgileri haz&#305;r.</text></g><g id="Aktif"><rect fill="#F1F1F1" height="64.2344" rx="12.5" ry="12.5" style="stroke:#181818;stroke-width:0.5;" width="151.291" x="276.58" y="267.5569"/><line style="stroke:#181818;stroke-width:0.5;" x1="276.58" x2="427.871" y1="293.8538" y2="293.8538"/><text fill="#000000" font-family="sans-serif" font-size="14" lengthAdjust="spacing" textLength="31.9922" x="336.2294" y="285.552">Aktif</text><text fill="#000000" font-family="sans-serif" font-size="12" lengthAdjust="spacing" textLength="119.5371" x="281.58" y="309.9924">U&#231;u&#351; devam ediyor.</text><text fill="#000000" font-family="sans-serif" font-size="12" lengthAdjust="spacing" textLength="127.4766" x="285.3945" y="323.9612">&#199;ocuk g&#246;rev yap&#305;yor.</text></g><g id="Duraklatildi"><rect fill="#F1F1F1" height="64.2344" rx="12.5" ry="12.5" style="stroke:#181818;stroke-width:0.5;" width="159.752" x="272.35" y="408.7969"/><line style="stroke:#181818;stroke-width:0.5;" x1="272.35" x2="432.102" y1="435.0938" y2="435.0938"/><text fill="#000000" font-family="sans-serif" font-size="14" lengthAdjust="spacing" textLength="80.6094" x="311.9213" y="426.792">Duraklatildi</text><text fill="#000000" font-family="sans-serif" font-size="12" lengthAdjust="spacing" textLength="112.4473" x="277.35" y="451.2324">&#199;ocuk mola verdi /</text><text fill="#000000" font-family="sans-serif" font-size="12" lengthAdjust="spacing" textLength="135.9375" x="281.1645" y="465.2012">Uygulama arkaplanda.</text></g><g id="Tamamlandi"><rect fill="#F1F1F1" height="64.2344" rx="12.5" ry="12.5" style="stroke:#181818;stroke-width:0.5;" width="169.5723" x="113.44" y="503.0269"/><line style="stroke:#181818;stroke-width:0.5;" x1="113.44" x2="283.0123" y1="529.3238" y2="529.3238"/><text fill="#000000" font-family="sans-serif" font-size="14" lengthAdjust="spacing" textLength="87.1035" x="154.6744" y="521.022">Tamamlandi</text><text fill="#000000" font-family="sans-serif" font-size="12" lengthAdjust="spacing" textLength="59.0625" x="118.44" y="545.4624">Rota bitti.</text><text fill="#000000" font-family="sans-serif" font-size="12" lengthAdjust="spacing" textLength="145.7578" x="122.2545" y="559.4312">U&#231;u&#351; ba&#351;ar&#305;yla sonland&#305;.</text></g><g id="IptalEdildi"><rect fill="#F1F1F1" height="64.2344" rx="12.5" ry="12.5" style="stroke:#181818;stroke-width:0.5;" width="182.498" x="396.97" y="597.2669"/><line style="stroke:#181818;stroke-width:0.5;" x1="396.97" x2="579.468" y1="623.5638" y2="623.5638"/><text fill="#000000" font-family="sans-serif" font-size="14" lengthAdjust="spacing" textLength="69.2617" x="453.5882" y="615.262">IptalEdildi</text><text fill="#000000" font-family="sans-serif" font-size="12" lengthAdjust="spacing" textLength="158.6836" x="401.97" y="639.7024">U&#231;u&#351; kullan&#305;c&#305; veya sistem</text><text fill="#000000" font-family="sans-serif" font-size="12" lengthAdjust="spacing" textLength="132.4922" x="405.7845" y="653.6712">taraf&#305;ndan iptal edildi.</text></g><ellipse cx="528.22" cy="53.2969" fill="#222222" rx="10" ry="10" style="stroke:#222222;stroke-width:1;"/><ellipse cx="315.22" cy="733.4969" fill="none" rx="11" ry="11" style="stroke:#222222;stroke-width:1;"/><ellipse cx="315.22" cy="733.4969" fill="#222222" rx="6" ry="6" style="stroke:#222222;stroke-width:1;"/><!--link *start* to Planlandi--><g class="link" data-entity-1="*start*" data-entity-2="Planlandi" data-source-line="3" data-uid="lnk3" id="link_*start*_Planlandi"><path d="M528.22,63.6869 C528.22,80.4369 528.22,109.9569 528.22,134.0269" fill="none" id="*start*-to-Planlandi" style="stroke:#181818;stroke-width:1;"/><polygon fill="#181818" points="528.22,140.0269,532.22,131.0269,528.22,135.0269,524.22,131.0269,528.22,140.0269" style="stroke:#181818;stroke-width:1;"/><text fill="#000000" font-family="sans-serif" font-size="13" lengthAdjust="spacing" textLength="212.9575" x="529.22" y="106.3638">Uygulama Ba&#351;lat&#305;l&#305;r / Rota Se&#231;ilir</text></g><!--link Planlandi to Aktif--><g class="link" data-entity-1="Planlandi" data-entity-2="Aktif" data-source-line="25" data-uid="lnk4" id="link_Planlandi_Aktif"><path d="M495.53,190.9869 C466.9,212.5069 429.9372,240.2832 398.8672,263.6232" fill="none" id="Planlandi-to-Aktif" style="stroke:#181818;stroke-width:1;"/><polygon fill="#181818" points="394.07,267.2269,403.6683,265.0195,398.0677,264.2238,398.8634,258.6232,394.07,267.2269" style="stroke:#181818;stroke-width:1;"/><text fill="#000000" font-family="sans-serif" font-size="13" lengthAdjust="spacing" textLength="82.1514" x="457.22" y="233.6238">UcusBaslat()</text></g><!--link Aktif to Duraklatildi--><g class="link" data-entity-1="Aktif" data-entity-2="Duraklatildi" data-source-line="26" data-uid="lnk5" id="link_Aktif_Duraklatildi"><path d="M350.39,332.0669 C349.91,341.6169 349.46,352.1269 349.22,361.7969 C348.85,377.1269 349.0866,388.1546 349.8066,402.3746" fill="none" id="Aktif-to-Duraklatildi" style="stroke:#181818;stroke-width:1;"/><polygon fill="#181818" points="350.11,408.3669,353.6498,399.1761,349.8572,403.3733,345.66,399.5807,350.11,408.3669" style="stroke:#181818;stroke-width:1;"/><text fill="#000000" font-family="sans-serif" font-size="13" lengthAdjust="spacing" textLength="189.6299" x="350.22" y="374.8638">MolaVer() / UygulamaKapat()</text></g><!--link Duraklatildi to Aktif--><g class="link" data-entity-1="Duraklatildi" data-entity-2="Aktif" data-source-line="27" data-uid="lnk6" id="link_Duraklatildi_Aktif"><path d="M289.14,408.5769 C272.42,395.7569 261.23,379.7169 270.22,361.7969 C276.04,350.2069 280.5593,344.07 290.6993,335.76" fill="none" id="Duraklatildi-to-Aktif" style="stroke:#181818;stroke-width:1;"/><polygon fill="#181818" points="295.34,331.9569,285.8435,334.5678,291.4728,335.1262,290.9144,340.7554,295.34,331.9569" style="stroke:#181818;stroke-width:1;"/><text fill="#000000" font-family="sans-serif" font-size="13" lengthAdjust="spacing" textLength="69.7861" x="271.22" y="374.8638">DevamEt()</text></g><!--link Aktif to Tamamlandi--><g class="link" data-entity-1="Aktif" data-entity-2="Tamamlandi" data-source-line="28" data-uid="lnk7" id="link_Aktif_Tamamlandi"><path d="M276.17,305.1769 C195.44,311.7169 75.64,327.1269 47.22,361.7969 C6,412.0969 73.8464,465.4082 132.0064,499.5682" fill="none" id="Aktif-to-Tamamlandi" style="stroke:#181818;stroke-width:1;"/><polygon fill="#181818" points="137.18,502.6069,131.4454,494.5997,132.8687,500.0746,127.3938,501.4979,137.18,502.6069" style="stroke:#181818;stroke-width:1;"/><text fill="#000000" font-family="sans-serif" font-size="13" lengthAdjust="spacing" textLength="210.3677" x="48.22" y="374.8638">SonDuragaUlasildi() / UcusBitir()</text></g><!--link Aktif to IptalEdildi--><g class="link" data-entity-1="Aktif" data-entity-2="IptalEdildi" data-source-line="29" data-uid="lnk8" id="link_Aktif_IptalEdildi"><path d="M427.92,304.0569 C469.42,310.2469 517.69,325.5069 544.22,361.7969 C554.75,376.1869 644.22,265.0769 534.22,567.2669 C530.41,577.7469 527.7323,583.1211 521.0423,592.0711" fill="none" id="Aktif-to-IptalEdildi" style="stroke:#181818;stroke-width:1;"/><polygon fill="#181818" points="517.45,596.8769,526.0423,592.063,520.4436,592.872,519.6345,587.2733,517.45,596.8769" style="stroke:#181818;stroke-width:1;"/><text fill="#000000" font-family="sans-serif" font-size="13" lengthAdjust="spacing" textLength="83.8906" x="584.22" y="445.4738">UcusIptalEt()</text></g><!--link Duraklatildi to IptalEdildi--><g class="link" data-entity-1="Duraklatildi" data-entity-2="IptalEdildi" data-source-line="30" data-uid="lnk9" id="link_Duraklatildi_IptalEdildi"><path d="M374.99,473.1169 C400.09,507.5469 436.7138,557.7597 461.8538,592.2197" fill="none" id="Duraklatildi-to-IptalEdildi" style="stroke:#181818;stroke-width:1;"/><polygon fill="#181818" points="465.39,597.0669,463.3171,587.4386,462.4432,593.0276,456.8542,592.1536,465.39,597.0669" style="stroke:#181818;stroke-width:1;"/><text fill="#000000" font-family="sans-serif" font-size="13" lengthAdjust="spacing" textLength="83.8906" x="442.22" y="539.7138">UcusIptalEt()</text></g><!--link Planlandi to IptalEdildi--><g class="link" data-entity-1="Planlandi" data-entity-2="IptalEdildi" data-source-line="31" data-uid="lnk10" id="link_Planlandi_IptalEdildi"><path d="M555.7,190.8169 C610.33,242.3969 723.42,366.5769 676.22,473.0269 C651.6,528.5769 600.6781,567.6087 556.1381,593.8787" fill="none" id="Planlandi-to-IptalEdildi" style="stroke:#181818;stroke-width:1;"/><polygon fill="#181818" points="550.97,596.9269,560.7542,595.8,555.2767,594.3867,556.69,588.9093,550.97,596.9269" style="stroke:#181818;stroke-width:1;"/><text fill="#000000" font-family="sans-serif" font-size="13" lengthAdjust="spacing" textLength="83.8906" x="682.22" y="374.8638">UcusIptalEt()</text></g><!--link Tamamlandi to *end*--><g class="link" data-entity-1="Tamamlandi" data-entity-2="*end*" data-source-line="33" data-uid="lnk12" id="link_Tamamlandi_*end*"><path d="M217.02,567.6969 C244.41,613.6569 290.7073,691.3634 306.8773,718.4834" fill="none" id="Tamamlandi-to-*end*" style="stroke:#181818;stroke-width:1;"/><polygon fill="#181818" points="309.95,723.6369,308.7766,713.8582,307.3894,719.3423,301.9053,717.9551,309.95,723.6369" style="stroke:#181818;stroke-width:1;"/></g><!--link IptalEdildi to *end*--><g class="link" data-entity-1="IptalEdildi" data-entity-2="*end*" data-source-line="34" data-uid="lnk13" id="link_IptalEdildi_*end*"><path d="M434.91,661.8469 C395.39,685.1769 350.1569,711.8767 329.6769,723.9667" fill="none" id="IptalEdildi-to-*end*" style="stroke:#181818;stroke-width:1;"/><polygon fill="#181818" points="324.51,727.0169,334.2937,725.8862,328.8157,724.4751,330.2269,718.9971,324.51,727.0169" style="stroke:#181818;stroke-width:1;"/></g><!--SRC=[VPE_Ri8m4CPtFyMDK0dO6IeLmL2XLbKfNTeE1vZq5EUFR0SfhJhtCHYPitJgbl1UFISG4bGXPKZEzttttS-A9QiaZFFVC4MOudvBQu8UZ1ET132c53sDGP4DOPxlalqMxgK9fI4XNgxUeDUxXWU58Jyh0kv9lKHXW31Y8uMso5IHQHZ0OsGHPZBVaI8jXB5ePKFvAQ3jKyrQaF98IKtmZXzir1TVH-sDRsbTwggtMhEI6mn0hYYDT1zUGyY_esNYWvV_QBc15ECYSqSdAruLVGvBwf2aLHWU3O988Moavjh0-TQxelOnTicnOVh49y5fkSRdi8An86kf37XSbf6Xvd0ynaGbYY9hEDx65jLaLQTiVjVR-ubYOP4jYuopyeqQCbO6Ren5ZUiYuvWXaDCwI2mkHvpWkokjaIuJCqB3A3fTKHNTyHcVEmRpB7MdoroEKAOObw9MQzDwxAvfqlPjGPf5eHDxE5TedBpoTud8acu9pr1mJrNvDy6bvZQ6IvsY4TRryjyWcls7sXy0]--></g></svg>