<svg xmlns="http://www.w3.org/2000/svg" xmlns:xlink="http://www.w3.org/1999/xlink" contentStyleType="text/css" data-diagram-type="DESCRIPTION" height="1294px" preserveAspectRatio="none" style="width:1180px;height:1294px;background:#FFFFFF;" version="1.1" viewBox="0 0 1180 1294" width="1180px" zoomAndPan="magnify"><defs/><g><!--cluster D?nya Ka?ifi Uygulamas?--><g class="cluster" data-entity="D&#252;nya Ka&#351;ifi Uygulamas&#305;" data-source-line="9" data-uid="ent0006" id="cluster_D&#252;nya Ka&#351;ifi Uygulamas&#305;"><rect fill="none" height="1119" rx="2.5" ry="2.5" style="stroke:#181818;stroke-width:1;" width="1060.64" x="113.4" y="169.05"/><text fill="#000000" font-family="sans-serif" font-size="14" font-weight="bold" lengthAdjust="spacing" textLength="196.0889" x="545.6756" y="184.0451">D&#252;nya Ka&#351;ifi Uygulamas&#305;</text></g><!--entity UC_OyunaHazirlan--><g class="entity" data-entity="UC_OyunaHazirlan" data-source-line="12" data-uid="ent0007" id="entity_UC_OyunaHazirlan"><ellipse cx="273.9371" cy="681.0474" fill="#F1F1F1" rx="144.5371" ry="31.3074" style="stroke:#181818;stroke-width:0.5;"/><text fill="#000000" font-family="sans-serif" font-size="14" lengthAdjust="spacing" textLength="271.0928" x="138.3907" y="685.6959">Oyuna Haz&#305;rlan (Giri&#351;/Avatar/Ekipman)</text></g><!--entity UC_SertifikaAl--><g class="entity" data-entity="UC_SertifikaAl" data-source-line="13" data-uid="ent0008" id="entity_UC_SertifikaAl"><ellipse cx="771.0126" cy="292.0485" fill="#F1F1F1" rx="77.8426" ry="17.9685" style="stroke:#181818;stroke-width:0.5;"/><text fill="#000000" font-family="sans-serif" font-size="14" lengthAdjust="spacing" textLength="125.5625" x="708.2313" y="296.697">Ka&#351;if Sertifikas&#305; Al</text></g><!--entity UC_RotayiGoruntule--><g class="entity" data-entity="UC_RotayiGoruntule" data-source-line="14" data-uid="ent0009" id="entity_UC_RotayiGoruntule"><ellipse cx="273.9432" cy="234.0526" fill="#F1F1F1" rx="138.8132" ry="30.1626" style="stroke:#181818;stroke-width:0.5;"/><text fill="#000000" font-family="sans-serif" font-size="14" lengthAdjust="spacing" textLength="259.1162" x="144.3851" y="238.7011">U&#231;u&#351; Rotas&#305;n&#305; ve G&#246;revleri G&#246;r&#252;nt&#252;le</text></g><!--entity UC_GorevYap--><g class="entity" data-entity="UC_GorevYap" data-source-line="15" data-uid="ent0010" id="entity_UC_GorevYap"><ellipse cx="771.0108" cy="225.0536" fill="#F1F1F1" rx="54.2908" ry="14.5236" style="stroke:#181818;stroke-width:0.5;"/><text fill="#000000" font-family="sans-serif" font-size="14" lengthAdjust="spacing" textLength="72.5361" x="734.7427" y="229.7021">G&#246;rev Yap</text></g><!--entity UC_ARDeneyimiKullan--><g class="entity" data-entity="UC_ARDeneyimiKullan" data-source-line="16" data-uid="ent0011" id="entity_UC_ARDeneyimiKullan"><ellipse cx="273.9389" cy="319.0538" fill="#F1F1F1" rx="88.7189" ry="20.1438" style="stroke:#181818;stroke-width:0.5;"/><text fill="#000000" font-family="sans-serif" font-size="14" lengthAdjust="spacing" textLength="150.835" x="198.5214" y="323.7022">AR Deneyimini Kullan</text></g><!--entity UC_PasaportGoruntule--><g class="entity" data-entity="UC_PasaportGoruntule" data-source-line="17" data-uid="ent0012" id="entity_UC_PasaportGoruntule"><ellipse cx="273.9385" cy="402.0477" fill="#F1F1F1" rx="129.6385" ry="28.3277" style="stroke:#181818;stroke-width:0.5;"/><text fill="#000000" font-family="sans-serif" font-size="14" lengthAdjust="spacing" textLength="239.8115" x="154.0328" y="406.6961">Pasaportu ve &#304;lerlemeyi G&#246;r&#252;nt&#252;le</text></g><!--entity UC_GunlukYaz--><g class="entity" data-entity="UC_GunlukYaz" data-source-line="18" data-uid="ent0013" id="entity_UC_GunlukYaz"><ellipse cx="273.9351" cy="495.051" fill="#F1F1F1" rx="134.9551" ry="29.391" style="stroke:#181818;stroke-width:0.5;"/><text fill="#000000" font-family="sans-serif" font-size="14" lengthAdjust="spacing" textLength="251.0156" x="148.4272" y="499.6994">Seyahat G&#252;nl&#252;&#287;&#252; Olu&#351;tur/G&#246;r&#252;nt&#252;le</text></g><!--entity UC_UcusSonu--><g class="entity" data-entity="UC_UcusSonu" data-source-line="19" data-uid="ent0014" id="entity_UC_UcusSonu"><ellipse cx="273.9412" cy="587.0462" fill="#F1F1F1" rx="124.5312" ry="27.3062" style="stroke:#181818;stroke-width:0.5;"/><text fill="#000000" font-family="sans-serif" font-size="14" lengthAdjust="spacing" textLength="228.9971" x="159.4427" y="591.6947">U&#231;u&#351; Sonu &#304;&#351;lemleri (&#214;zet/S&#305;nav)</text></g><!--entity UC_EbeveynAyarlari--><g class="entity" data-entity="UC_EbeveynAyarlari" data-source-line="22" data-uid="ent0015" id="entity_UC_EbeveynAyarlari"><ellipse cx="273.937" cy="770.0474" fill="#F1F1F1" rx="100.187" ry="22.4374" style="stroke:#181818;stroke-width:0.5;"/><text fill="#000000" font-family="sans-serif" font-size="14" lengthAdjust="spacing" textLength="176.4697" x="185.7022" y="774.6958">Ebeveyn Ayarlar&#305;n&#305; Y&#246;net</text></g><!--entity UC_IlerlemeIzle--><g class="entity" data-entity="UC_IlerlemeIzle" data-source-line="23" data-uid="ent0016" id="entity_UC_IlerlemeIzle"><ellipse cx="273.9374" cy="848.0475" fill="#F1F1F1" rx="91.4374" ry="20.6875" style="stroke:#181818;stroke-width:0.5;"/><text fill="#000000" font-family="sans-serif" font-size="14" lengthAdjust="spacing" textLength="156.9873" x="195.4438" y="852.6959">&#199;ocuk &#304;lerlemesini &#304;zle</text></g><!--entity UC_IcerikYonet--><g class="entity" data-entity="UC_IcerikYonet" data-source-line="26" data-uid="ent0017" id="entity_UC_IcerikYonet"><ellipse cx="273.9402" cy="922.046" fill="#F1F1F1" rx="81.6802" ry="18.736" style="stroke:#181818;stroke-width:0.5;"/><text fill="#000000" font-family="sans-serif" font-size="14" lengthAdjust="spacing" textLength="134.6201" x="206.6301" y="926.6945">&#304;&#231;erik Y&#246;netimi Yap</text></g><!--entity UC_KullaniciVeriIzle--><g class="entity" data-entity="UC_KullaniciVeriIzle" data-source-line="27" data-uid="ent0018" id="entity_UC_KullaniciVeriIzle"><ellipse cx="273.9419" cy="1000.0464" fill="#F1F1F1" rx="110.8319" ry="24.5664" style="stroke:#181818;stroke-width:0.5;"/><text fill="#000000" font-family="sans-serif" font-size="14" lengthAdjust="spacing" textLength="199.6777" x="174.1031" y="1004.6948">Genel Kullan&#305;c&#305; Verilerini &#304;zle</text></g><!--entity UC_SistemAyarlari--><g class="entity" data-entity="UC_SistemAyarlari" data-source-line="29" data-uid="ent0019" id="entity_UC_SistemAyarlari"><ellipse cx="273.9391" cy="1081.0518" fill="#F1F1F1" rx="94.5091" ry="21.3018" style="stroke:#181818;stroke-width:0.5;"/><text fill="#000000" font-family="sans-serif" font-size="14" lengthAdjust="spacing" textLength="163.8779" x="192.0002" y="1085.7003">Sistem Ayarlar&#305;n&#305; Y&#246;net</text></g><!--entity UC_BildirimGonder--><g class="entity" data-entity="UC_BildirimGonder" data-source-line="30" data-uid="ent0020" id="entity_UC_BildirimGonder"><ellipse cx="273.9448" cy="1158.047" fill="#F1F1F1" rx="90.4348" ry="20.487" style="stroke:#181818;stroke-width:0.5;"/><text fill="#000000" font-family="sans-serif" font-size="14" lengthAdjust="spacing" textLength="154.7246" x="196.5825" y="1162.6954">Genel Bildirim G&#246;nder</text></g><!--entity UC_HatirlatmaYap--><g class="entity" data-entity="UC_HatirlatmaYap" data-source-line="33" data-uid="ent0021" id="entity_UC_HatirlatmaYap"><ellipse cx="273.9399" cy="1243.048" fill="#F1F1F1" rx="133.9899" ry="29.198" style="stroke:#181818;stroke-width:0.5;"/><text fill="#000000" font-family="sans-serif" font-size="14" lengthAdjust="spacing" textLength="248.9854" x="149.4472" y="1247.6964">Hat&#305;rlatma/&#214;neri Sa&#287;la (G&#246;z/Duru&#351;)</text></g><g class="entity" data-entity="GMN38" data-source-line="67" data-uid="ent0039" id="entity_GMN38"><path d="M935.54,204.35 L935.54,225.22 L825.45,226.42 L935.54,233.22 L935.54,259.7484 A0,0 0 0 0 935.54,259.7484 L1158.0337,259.7484 A0,0 0 0 0 1158.0337,259.7484 L1158.0337,214.35 L1148.0337,204.35 L935.54,204.35 A0,0 0 0 0 935.54,204.35" fill="#FEFFDD" style="stroke:#181818;stroke-width:0.5;"/><path d="M1148.0337,204.35 L1148.0337,214.35 L1158.0337,214.35 L1148.0337,204.35" fill="#FEFFDD" style="stroke:#181818;stroke-width:0.5;"/><text fill="#000000" font-family="sans-serif" font-size="13" lengthAdjust="spacing" textLength="201.4937" x="941.54" y="221.4169">G&#246;rev t&#252;rleri (Co&#287;rafi, K&#252;lt&#252;rel,</text><text fill="#000000" font-family="sans-serif" font-size="13" lengthAdjust="spacing" textLength="184.7549" x="941.54" y="236.5497">Dil, Mini Oyun) bu use case'i</text><text fill="#000000" font-family="sans-serif" font-size="13" lengthAdjust="spacing" textLength="152.0391" x="941.54" y="251.6825">detayland&#305;r&#305;r/geni&#351;letir.</text></g><g class="entity" data-entity="GMN42" data-source-line="73" data-uid="ent0043" id="entity_GMN42"><path d="M679.66,345.35 L679.66,359.17 L354.76,327.76 L679.66,367.17 L679.66,400.7484 A0,0 0 0 0 679.66,400.7484 L862.3538,400.7484 A0,0 0 0 0 862.3538,400.7484 L862.3538,355.35 L852.3538,345.35 L679.66,345.35 A0,0 0 0 0 679.66,345.35" fill="#FEFFDD" style="stroke:#181818;stroke-width:0.5;"/><path d="M852.3538,345.35 L852.3538,355.35 L862.3538,355.35 L852.3538,345.35" fill="#FEFFDD" style="stroke:#181818;stroke-width:0.5;"/><text fill="#000000" font-family="sans-serif" font-size="13" lengthAdjust="spacing" textLength="161.6938" x="685.66" y="362.4169">AR; harita, yap&#305;, pencere</text><text fill="#000000" font-family="sans-serif" font-size="13" lengthAdjust="spacing" textLength="131.8027" x="685.66" y="377.5497">g&#246;r&#252;n&#252;m&#252; gibi farkl&#305;</text><text fill="#000000" font-family="sans-serif" font-size="13" lengthAdjust="spacing" textLength="151.3281" x="685.66" y="392.6825">ama&#231;larla kullan&#305;labilir.</text></g><g class="entity" data-entity="GMN45" data-source-line="80" data-uid="ent0046" id="entity_GMN45"><path d="M667.48,864.09 L667.48,918.05 L355.86,922.05 L667.48,926.05 L667.48,980.0197 A0,0 0 0 0 667.48,980.0197 L874.5454,980.0197 A0,0 0 0 0 874.5454,980.0197 L874.5454,874.09 L864.5454,864.09 L667.48,864.09 A0,0 0 0 0 667.48,864.09" fill="#FEFFDD" style="stroke:#181818;stroke-width:0.5;"/><path d="M864.5454,864.09 L864.5454,874.09 L874.5454,874.09 L864.5454,864.09" fill="#FEFFDD" style="stroke:#181818;stroke-width:0.5;"/><text fill="#000000" font-family="sans-serif" font-size="13" font-weight="bold" lengthAdjust="spacing" textLength="158.8501" x="673.48" y="881.1569">&#304;&#231;erik Y&#246;netimi &#304;&#231;erir:</text><ellipse cx="678.98" cy="891.8556" fill="#000000" rx="2.5" ry="2.5"/><text fill="#000000" font-family="sans-serif" font-size="13" lengthAdjust="spacing" textLength="159.2627" x="685.48" y="896.2897">&#220;lke/&#350;ehir Ekle/G&#252;ncelle</text><ellipse cx="678.98" cy="906.9884" fill="#000000" rx="2.5" ry="2.5"/><text fill="#000000" font-family="sans-serif" font-size="13" lengthAdjust="spacing" textLength="163.9663" x="685.48" y="911.4225">Yap&#305;/Model Ekle/G&#252;ncelle</text><ellipse cx="678.98" cy="922.1212" fill="#000000" rx="2.5" ry="2.5"/><text fill="#000000" font-family="sans-serif" font-size="13" lengthAdjust="spacing" textLength="174.0654" x="685.48" y="926.5553">K&#252;lt&#252;rel &#214;&#287;e Ekle/G&#252;ncelle</text><ellipse cx="678.98" cy="937.2541" fill="#000000" rx="2.5" ry="2.5"/><text fill="#000000" font-family="sans-serif" font-size="13" lengthAdjust="spacing" textLength="152.5405" x="685.48" y="941.6881">Dil Bilgisi Ekle/G&#252;ncelle</text><ellipse cx="678.98" cy="952.3869" fill="#000000" rx="2.5" ry="2.5"/><text fill="#000000" font-family="sans-serif" font-size="13" lengthAdjust="spacing" textLength="131.8472" x="685.48" y="956.821">G&#246;rev Ekle/G&#252;ncelle</text><ellipse cx="678.98" cy="967.5197" fill="#000000" rx="2.5" ry="2.5"/><text fill="#000000" font-family="sans-serif" font-size="13" lengthAdjust="spacing" textLength="123.1191" x="685.48" y="971.9538">&#214;d&#252;l Ekle/G&#252;ncelle</text></g><!--entity Child--><g class="entity" data-entity="Child" data-source-line="3" data-uid="ent0002" id="entity_Child"><ellipse cx="36.1993" cy="331.4" fill="#F1F1F1" rx="8" ry="8" style="stroke:#181818;stroke-width:0.5;"/><path d="M36.1993,339.4 L36.1993,366.4 M23.1993,347.4 L49.1993,347.4 M36.1993,366.4 L23.1993,381.4 M36.1993,366.4 L49.1993,381.4" fill="none" style="stroke:#181818;stroke-width:0.5;"/><text fill="#000000" font-family="sans-serif" font-size="14" lengthAdjust="spacing" textLength="43.0186" x="14.69" y="395.8951">&#199;ocuk</text></g><!--entity Parent--><g class="entity" data-entity="Parent" data-source-line="4" data-uid="ent0003" id="entity_Parent"><ellipse cx="36.2012" cy="788.4" fill="#F1F1F1" rx="8" ry="8" style="stroke:#181818;stroke-width:0.5;"/><path d="M36.2012,796.4 L36.2012,823.4 M23.2012,804.4 L49.2012,804.4 M36.2012,823.4 L23.2012,838.4 M36.2012,823.4 L49.2012,838.4" fill="none" style="stroke:#181818;stroke-width:0.5;"/><text fill="#000000" font-family="sans-serif" font-size="14" lengthAdjust="spacing" textLength="60.4023" x="6" y="852.8951">Ebeveyn</text></g><!--entity Admin--><g class="entity" data-entity="Admin" data-source-line="5" data-uid="ent0004" id="entity_Admin"><ellipse cx="36.2047" cy="999.4" fill="#F1F1F1" rx="8" ry="8" style="stroke:#181818;stroke-width:0.5;"/><path d="M36.2047,1007.4 L36.2047,1034.4 M23.2047,1015.4 L49.2047,1015.4 M36.2047,1034.4 L23.2047,1049.4 M36.2047,1034.4 L49.2047,1049.4" fill="none" style="stroke:#181818;stroke-width:0.5;"/><text fill="#000000" font-family="sans-serif" font-size="14" lengthAdjust="spacing" textLength="55.5693" x="8.42" y="1063.8951">Y&#246;netici</text></g><!--entity System--><g class="entity" data-entity="System" data-source-line="6" data-uid="ent0005" id="entity_System"><ellipse cx="36.2053" cy="1213.4" fill="#F1F1F1" rx="8" ry="8" style="stroke:#181818;stroke-width:0.5;"/><path d="M36.2053,1221.4 L36.2053,1248.4 M23.2053,1229.4 L49.2053,1229.4 M36.2053,1248.4 L23.2053,1263.4 M36.2053,1248.4 L49.2053,1263.4" fill="none" style="stroke:#181818;stroke-width:0.5;"/><text fill="#000000" font-family="sans-serif" font-size="14" lengthAdjust="spacing" textLength="47.8105" x="12.3" y="1277.8951">Sistem</text></g><!--link Child to UC_OyunaHazirlan--><g class="link" data-entity-1="Child" data-entity-2="UC_OyunaHazirlan" data-source-line="38" data-uid="lnk22" id="link_Child_UC_OyunaHazirlan"><path d="M42.13,399.44 C51.41,466 73.48,598.89 105.4,632.05 C118.85,646.02 130.4705,653.8633 148.7005,661.0733" fill="none" id="Child-to-UC_OyunaHazirlan" style="stroke:#181818;stroke-width:1;"/><polygon fill="#181818" points="154.28,663.28,147.3819,656.2503,149.6304,661.4411,144.4397,663.6896,154.28,663.28" style="stroke:#181818;stroke-width:1;"/></g><!--link Child to UC_SertifikaAl--><g class="link" data-entity-1="Child" data-entity-2="UC_SertifikaAl" data-source-line="39" data-uid="lnk23" id="link_Child_UC_SertifikaAl"><path d="M39.99,322.7 C45.31,281.11 60.72,216.6 105.4,186.05 C203.12,119.25 536.77,148.85 637.48,211.05 C658.24,223.88 648.21,242.07 667.48,257.05 C680.62,267.27 691.2372,272.7048 706.9472,277.9348" fill="none" id="Child-to-UC_SertifikaAl" style="stroke:#181818;stroke-width:1;"/><polygon fill="#181818" points="712.64,279.83,705.3642,273.192,707.896,278.2507,702.8373,280.7824,712.64,279.83" style="stroke:#181818;stroke-width:1;"/></g><!--link Child to UC_RotayiGoruntule--><g class="link" data-entity-1="Child" data-entity-2="UC_RotayiGoruntule" data-source-line="40" data-uid="lnk24" id="link_Child_UC_RotayiGoruntule"><path d="M57.99,328.5 C70.01,312.09 86.49,293.15 105.4,281.05 C123.98,269.16 139.8541,262.0327 161.2541,255.3327" fill="none" id="Child-to-UC_RotayiGoruntule" style="stroke:#181818;stroke-width:1;"/><polygon fill="#181818" points="166.98,253.54,157.196,252.4118,162.2084,255.0339,159.5862,260.0463,166.98,253.54" style="stroke:#181818;stroke-width:1;"/></g><!--link Child to UC_GorevYap--><g class="link" data-entity-1="Child" data-entity-2="UC_GorevYap" data-source-line="41" data-uid="lnk25" id="link_Child_UC_GorevYap"><path d="M43.49,322.43 C53.67,265.35 75.67,162.94 105.4,142.05 C298.97,6 409.43,96 637.48,159.05 C679.35,170.63 718.5904,192.5187 743.9004,208.2087" fill="none" id="Child-to-UC_GorevYap" style="stroke:#181818;stroke-width:1;"/><polygon fill="#181818" points="749,211.37,743.4581,203.2283,744.7503,208.7356,739.243,210.0278,749,211.37" style="stroke:#181818;stroke-width:1;"/></g><!--link Child to UC_ARDeneyimiKullan--><g class="link" data-entity-1="Child" data-entity-2="UC_ARDeneyimiKullan" data-source-line="42" data-uid="lnk26" id="link_Child_UC_ARDeneyimiKullan"><path d="M58.12,357.32 C90.29,351.59 147.473,341.4021 196.993,332.5821" fill="none" id="Child-to-UC_ARDeneyimiKullan" style="stroke:#181818;stroke-width:1;"/><polygon fill="#181818" points="202.9,331.53,193.338,329.1701,197.9775,332.4068,194.7408,337.0462,202.9,331.53" style="stroke:#181818;stroke-width:1;"/></g><!--link Child to UC_PasaportGoruntule--><g class="link" data-entity-1="Child" data-entity-2="UC_PasaportGoruntule" data-source-line="43" data-uid="lnk27" id="link_Child_UC_PasaportGoruntule"><path d="M58.12,364.69 C83.76,369.15 123.1087,375.9922 165.4987,383.3622" fill="none" id="Child-to-UC_PasaportGoruntule" style="stroke:#181818;stroke-width:1;"/><polygon fill="#181818" points="171.41,384.39,163.2282,378.9075,166.4839,383.5335,161.8578,386.7893,171.41,384.39" style="stroke:#181818;stroke-width:1;"/></g><!--link Child to UC_GunlukYaz--><g class="link" data-entity-1="Child" data-entity-2="UC_GunlukYaz" data-source-line="44" data-uid="lnk28" id="link_Child_UC_GunlukYaz"><path d="M57.99,397.34 C69.81,414.99 86.1,435.14 105.4,448.05 C124.11,460.57 140.3797,468.0013 162.1897,474.7713" fill="none" id="Child-to-UC_GunlukYaz" style="stroke:#181818;stroke-width:1;"/><polygon fill="#181818" points="167.92,476.55,160.5104,470.0617,163.1448,475.0677,158.1388,477.7021,167.92,476.55" style="stroke:#181818;stroke-width:1;"/></g><!--link Child to UC_UcusSonu--><g class="link" data-entity-1="Child" data-entity-2="UC_UcusSonu" data-source-line="45" data-uid="lnk29" id="link_Child_UC_UcusSonu"><path d="M41.43,399.67 C47.99,440.79 64.48,504.95 105.4,542.05 C121.91,557.02 137.1572,565.2873 158.6172,572.0473" fill="none" id="Child-to-UC_UcusSonu" style="stroke:#181818;stroke-width:1;"/><polygon fill="#181818" points="164.34,573.85,156.9576,567.3308,159.571,572.3477,154.554,574.9611,164.34,573.85" style="stroke:#181818;stroke-width:1;"/></g><!--link Parent to UC_EbeveynAyarlari--><g class="link" data-entity-1="Parent" data-entity-2="UC_EbeveynAyarlari" data-source-line="48" data-uid="lnk30" id="link_Parent_UC_EbeveynAyarlari"><path d="M66.58,812.07 C99.41,805.38 147.9505,795.4967 192.6605,786.3967" fill="none" id="Parent-to-UC_EbeveynAyarlari" style="stroke:#181818;stroke-width:1;"/><polygon fill="#181818" points="198.54,785.2,188.923,783.0754,193.6405,786.1972,190.5186,790.9146,198.54,785.2" style="stroke:#181818;stroke-width:1;"/></g><!--link Parent to UC_IlerlemeIzle--><g class="link" data-entity-1="Parent" data-entity-2="UC_IlerlemeIzle" data-source-line="49" data-uid="lnk31" id="link_Parent_UC_IlerlemeIzle"><path d="M66.58,821.79 C98.18,825.81 143.818,831.6225 187.508,837.1825" fill="none" id="Parent-to-UC_IlerlemeIzle" style="stroke:#181818;stroke-width:1;"/><polygon fill="#181818" points="193.46,837.94,185.037,832.8358,188.5,837.3088,184.027,840.7718,193.46,837.94" style="stroke:#181818;stroke-width:1;"/></g><!--link Admin to UC_IcerikYonet--><g class="link" data-entity-1="Admin" data-entity-2="UC_IcerikYonet" data-source-line="52" data-uid="lnk32" id="link_Admin_UC_IcerikYonet"><path d="M64.36,992.84 C75.71,980.05 89.88,966.71 105.4,958.05 C133.21,942.55 161.1228,934.7134 191.0828,929.6834" fill="none" id="Admin-to-UC_IcerikYonet" style="stroke:#181818;stroke-width:1;"/><polygon fill="#181818" points="197,928.69,187.4619,926.2354,192.069,929.5179,188.7865,934.1249,197,928.69" style="stroke:#181818;stroke-width:1;"/></g><!--link Admin to UC_KullaniciVeriIzle--><g class="link" data-entity-1="Admin" data-entity-2="UC_KullaniciVeriIzle" data-source-line="53" data-uid="lnk33" id="link_Admin_UC_KullaniciVeriIzle"><path d="M64.24,1025.72 C91.64,1022.35 129.6749,1017.6726 170.2349,1012.6826" fill="none" id="Admin-to-UC_KullaniciVeriIzle" style="stroke:#181818;stroke-width:1;"/><polygon fill="#181818" points="176.19,1011.95,166.7689,1009.0789,171.2274,1012.5605,167.7458,1017.019,176.19,1011.95" style="stroke:#181818;stroke-width:1;"/></g><!--link Admin to UC_SistemAyarlari--><g class="link" data-entity-1="Admin" data-entity-2="UC_SistemAyarlari" data-source-line="54" data-uid="lnk34" id="link_Admin_UC_SistemAyarlari"><path d="M64.24,1035.02 C98.35,1042.54 152.3308,1054.4479 199.2208,1064.7879" fill="none" id="Admin-to-UC_SistemAyarlari" style="stroke:#181818;stroke-width:1;"/><polygon fill="#181818" points="205.08,1066.08,197.1525,1060.2358,200.1973,1065.0033,195.4298,1068.0481,205.08,1066.08" style="stroke:#181818;stroke-width:1;"/></g><!--link Admin to UC_BildirimGonder--><g class="link" data-entity-1="Admin" data-entity-2="UC_BildirimGonder" data-source-line="55" data-uid="lnk35" id="link_Admin_UC_BildirimGonder"><path d="M57.37,1067.43 C69.03,1086.01 85.36,1107.05 105.4,1120.05 C130.05,1136.04 154.6376,1144.2088 182.8176,1149.6188" fill="none" id="Admin-to-UC_BildirimGonder" style="stroke:#181818;stroke-width:1;"/><polygon fill="#181818" points="188.71,1150.75,180.6256,1145.1249,183.7997,1149.8073,179.1173,1152.9814,188.71,1150.75" style="stroke:#181818;stroke-width:1;"/></g><!--link System to UC_HatirlatmaYap--><g class="link" data-entity-1="System" data-entity-2="UC_HatirlatmaYap" data-source-line="58" data-uid="lnk36" id="link_System_UC_HatirlatmaYap"><path d="M60.23,1243.05 C79.58,1243.05 102.94,1243.05 133.71,1243.05" fill="none" id="System-to-UC_HatirlatmaYap" style="stroke:#181818;stroke-width:1;"/><polygon fill="#181818" points="139.71,1243.05,130.71,1239.05,134.71,1243.05,130.71,1247.05,139.71,1243.05" style="stroke:#181818;stroke-width:1;"/></g><!--link UC_OyunaHazirlan to UC_SertifikaAl--><g class="link" data-entity-1="UC_OyunaHazirlan" data-entity-2="UC_SertifikaAl" data-source-line="63" data-uid="lnk37" id="link_UC_OyunaHazirlan_UC_SertifikaAl"><path d="M369.3,657.25 C386.49,650.62 403.66,642.33 418.48,632.05 C561.95,532.47 524.44,428.26 667.48,328.05 C681.85,317.98 693.6189,312.3805 710.0289,306.9005" fill="none" id="UC_OyunaHazirlan-to-UC_SertifikaAl" style="stroke:#181818;stroke-width:1;stroke-dasharray:7.0,7.0;"/><polygon fill="#181818" points="715.72,305,705.9164,304.0567,710.9775,306.5837,708.4504,311.6448,715.72,305" style="stroke:#181818;stroke-width:1;"/><text fill="#000000" font-family="sans-serif" font-size="13" lengthAdjust="spacing" textLength="63.0068" x="511.9024" y="334.1169">&#171;include&#187;</text><text fill="#000000" font-family="sans-serif" font-size="13" lengthAdjust="spacing" textLength="165.8516" x="460.48" y="349.2497">(Haz&#305;rl&#305;k sonras&#305; sertifika)</text></g><!--reverse link UC_ARDeneyimiKullan to UC_GorevYap--><g class="link" data-entity-1="UC_ARDeneyimiKullan" data-entity-2="UC_GorevYap" data-source-line="71" data-uid="lnk41" id="link_UC_ARDeneyimiKullan_UC_GorevYap"><path d="M349.1547,304.9608 C452.3347,285.3708 639.17,249.89 725.82,233.44" fill="none" id="UC_ARDeneyimiKullan-backto-UC_GorevYap" style="stroke:#181818;stroke-width:1;stroke-dasharray:7.0,7.0;"/><polygon fill="#181818" points="343.26,306.08,352.8482,308.331,348.1722,305.1473,351.3559,300.4714,343.26,306.08" style="stroke:#181818;stroke-width:1;"/><text fill="#000000" font-family="sans-serif" font-size="13" lengthAdjust="spacing" textLength="61.1851" x="512.5979" y="232.1169">&#171;extend&#187;</text><text fill="#000000" font-family="sans-serif" font-size="13" lengthAdjust="spacing" textLength="187.4209" x="449.48" y="247.2497">(G&#246;revlerde AR kullan&#305;labilir)</text></g><!--SRC=[ZLP1R-eu4BxpAqPSIYiAzsvRYIqLhwhUlYSGAo6jj78J0rOS1paEsh3Qy_w3dbRBiTTowObRml_QiHC3SQAtbQgAp8p7dpz_C-CB6BAKB2G9OPPzY6mFQmg3G6KVabFPudIkG4KWsMAfm6UIUef5eaKy5Kd8_ewy900ImyEISR-qFhxGDKs5DdydaWfLsdL-gfZ7j6VWXyoccR1OqL1R9wd-rMfTMDiatuby9pcH-QwbDoTYmIcqXzbUf0IUoM7BvWocwIBX92Hnlcl3dwqMm0LSNrzRWCy9vmJpO3ugY4mZaqz7O6GIKu_45AOFltzB4q6-a0t33Gt-jh40cWm80PqHa-omxG_MH17PVmpOAYJYibtDCw5I8Qo03BZ9Ki24enbXme0xYyQH8YaRHJ8HAi4pweNJx2qvR46xOiE4lfqHtWrTu-qmynEPKDcUKoST9gBh6LcPFCKIm4ydQZ0UKa5J5hA28nCz68Er2bQIvwpxJcAoYgIgmhNMHCFCtn4Yfo7c-I7EHF0ac96DoJ2XALaIXGlsWcVxV8k2_CQH0vN8_W-oJBqadaGYEMVDVEVlXos2C6nrijSDLNsjARB6EplAn2hsipefumSfqSeqUcxR7AMnkAr2yWxMfvANfqr9MwdI8s6nfZr_t-XJ7Z6UgkUpA9yyF7GmYt2PsIP_pzwqnQOAMOCWYkIupQyOUaGuGZdmuyOUxgRTcjGJKWtqbqZTm414WY7ZU6bOB3p4Ua4zOBKkJ1OiRABm7mjqWwdMZIdw2grb7_X_Ld_61eJRXQD8-5IUeROEBKBjEkEqJFvPGhyWRaIXGcBh2YscCQ2fdxqABR89oRUSOAF8FZRzOI9HYLPgTtTt-fAHZq1pfxyBHoc0eksUXp1qczQAOEvh7SfrdhKTr-Kq5zTjcuLhTzk3ww-rWLfYMzskmnPiGS2nU1ePAAQ8NUaKNyr_Nbv5zbFfDESti-Yu_5GrhgjM6sv0LR-kjwhG0fgLToEkOXhQvHNrdJGy94WhFAgGcjb01TCDJt-UPpDYDclEuZjFmkE9Jo_HKPj-lPwhARY1zkqjAzRSt_ycEkLSp7S1n96GPgx5Te5L_JcapkCVYWfVRoWYHSjdHJHtD0ZbZ0DizR9etGzHlfLaphhmZErVsodlcj0XurtugXkHFi0bl2IwPa4NxGKp4Jv5yUEPV0IBV_s5HSHa3mCGa45Ji52RYBUzNcMU6XQeEOSXuJYEVNmuZI4ecmadBumpQPu6jRCsr1MAPVmJB54tYdGX9QjyruKL5IX7QjoBOlfb-n1dueAzC9WJ6I3vnekFd-oDQ-6v22f7TEfXYaGzwEusB2YI9biDRhKcuEggOPIK9dbpTMLY8Fk71xH_-9Sk6Ru9iTdtzL3tA3TrWm4pVSR-ryZ79jtaFrqqPA_vbZO6uUth3hzWCMlqbq9gScMlFkvGTvt8-ki_]--></g></svg>